solid OpenSCAD_Model
  facet normal -0.891004 0.453995 0
    outer loop
      vertex 1.37533 -0.999234 -2.01
      vertex 1.6168 -0.525329 -0.5
      vertex 1.6168 -0.525329 -2.01
    endloop
  endfacet
  facet normal -0.891004 0.453995 0
    outer loop
      vertex 1.6168 -0.525329 -0.5
      vertex 1.37533 -0.999234 -2.01
      vertex 1.37533 -0.999234 -0.5
    endloop
  endfacet
  facet normal -0.987689 0.156427 0
    outer loop
      vertex 1.6168 -0.525329 -2.01
      vertex 1.7 0 -0.5
      vertex 1.7 0 -2.01
    endloop
  endfacet
  facet normal -0.987689 0.156427 0
    outer loop
      vertex 1.7 0 -0.5
      vertex 1.6168 -0.525329 -2.01
      vertex 1.6168 -0.525329 -0.5
    endloop
  endfacet
  facet normal -0.707107 0.707107 0
    outer loop
      vertex 0.999234 -1.37533 -2.01
      vertex 1.37533 -0.999234 -0.5
      vertex 1.37533 -0.999234 -2.01
    endloop
  endfacet
  facet normal -0.707107 0.707107 0
    outer loop
      vertex 1.37533 -0.999234 -0.5
      vertex 0.999234 -1.37533 -2.01
      vertex 0.999234 -1.37533 -0.5
    endloop
  endfacet
  facet normal -0.156427 -0.987689 0
    outer loop
      vertex 0 1.7 -2.01
      vertex 0.525329 1.6168 -0.5
      vertex 0 1.7 -0.5
    endloop
  endfacet
  facet normal -0.156427 -0.987689 -0
    outer loop
      vertex 0.525329 1.6168 -0.5
      vertex 0 1.7 -2.01
      vertex 0.525329 1.6168 -2.01
    endloop
  endfacet
  facet normal 0.453995 0.891004 -0
    outer loop
      vertex -0.525329 -1.6168 -2.01
      vertex -0.999234 -1.37533 -0.5
      vertex -0.525329 -1.6168 -0.5
    endloop
  endfacet
  facet normal 0.453995 0.891004 0
    outer loop
      vertex -0.999234 -1.37533 -0.5
      vertex -0.525329 -1.6168 -2.01
      vertex -0.999234 -1.37533 -2.01
    endloop
  endfacet
  facet normal -0.453995 -0.891004 0
    outer loop
      vertex 0.525329 1.6168 -2.01
      vertex 0.999234 1.37533 -0.5
      vertex 0.525329 1.6168 -0.5
    endloop
  endfacet
  facet normal -0.453995 -0.891004 -0
    outer loop
      vertex 0.999234 1.37533 -0.5
      vertex 0.525329 1.6168 -2.01
      vertex 0.999234 1.37533 -2.01
    endloop
  endfacet
  facet normal -0.707107 -0.707107 0
    outer loop
      vertex 1.37533 0.999234 -2.01
      vertex 0.999234 1.37533 -0.5
      vertex 0.999234 1.37533 -2.01
    endloop
  endfacet
  facet normal -0.707107 -0.707107 0
    outer loop
      vertex 0.999234 1.37533 -0.5
      vertex 1.37533 0.999234 -2.01
      vertex 1.37533 0.999234 -0.5
    endloop
  endfacet
  facet normal 0.156427 -0.987689 0
    outer loop
      vertex -0.525329 1.6168 -2.01
      vertex 0 1.7 -0.5
      vertex -0.525329 1.6168 -0.5
    endloop
  endfacet
  facet normal 0.156427 -0.987689 0
    outer loop
      vertex 0 1.7 -0.5
      vertex -0.525329 1.6168 -2.01
      vertex 0 1.7 -2.01
    endloop
  endfacet
  facet normal 0.891004 0.453995 0
    outer loop
      vertex -1.37533 -0.999234 -0.5
      vertex -1.6168 -0.525329 -2.01
      vertex -1.6168 -0.525329 -0.5
    endloop
  endfacet
  facet normal 0.891004 0.453995 0
    outer loop
      vertex -1.6168 -0.525329 -2.01
      vertex -1.37533 -0.999234 -0.5
      vertex -1.37533 -0.999234 -2.01
    endloop
  endfacet
  facet normal -0.987689 -0.156427 0
    outer loop
      vertex 1.7 0 -2.01
      vertex 1.6168 0.525329 -0.5
      vertex 1.6168 0.525329 -2.01
    endloop
  endfacet
  facet normal -0.987689 -0.156427 0
    outer loop
      vertex 1.6168 0.525329 -0.5
      vertex 1.7 0 -2.01
      vertex 1.7 0 -0.5
    endloop
  endfacet
  facet normal 0.987689 0.156427 0
    outer loop
      vertex -1.6168 -0.525329 -0.5
      vertex -1.7 0 -2.01
      vertex -1.7 0 -0.5
    endloop
  endfacet
  facet normal 0.987689 0.156427 0
    outer loop
      vertex -1.7 0 -2.01
      vertex -1.6168 -0.525329 -0.5
      vertex -1.6168 -0.525329 -2.01
    endloop
  endfacet
  facet normal -0.891004 -0.453995 0
    outer loop
      vertex 1.6168 0.525329 -2.01
      vertex 1.37533 0.999234 -0.5
      vertex 1.37533 0.999234 -2.01
    endloop
  endfacet
  facet normal -0.891004 -0.453995 0
    outer loop
      vertex 1.37533 0.999234 -0.5
      vertex 1.6168 0.525329 -2.01
      vertex 1.6168 0.525329 -0.5
    endloop
  endfacet
  facet normal -0.156427 0.987689 0
    outer loop
      vertex 0.525329 -1.6168 -2.01
      vertex 0 -1.7 -0.5
      vertex 0.525329 -1.6168 -0.5
    endloop
  endfacet
  facet normal -0.156427 0.987689 0
    outer loop
      vertex 0 -1.7 -0.5
      vertex 0.525329 -1.6168 -2.01
      vertex 0 -1.7 -2.01
    endloop
  endfacet
  facet normal -0.453995 0.891004 0
    outer loop
      vertex 0.999234 -1.37533 -2.01
      vertex 0.525329 -1.6168 -0.5
      vertex 0.999234 -1.37533 -0.5
    endloop
  endfacet
  facet normal -0.453995 0.891004 0
    outer loop
      vertex 0.525329 -1.6168 -0.5
      vertex 0.999234 -1.37533 -2.01
      vertex 0.525329 -1.6168 -2.01
    endloop
  endfacet
  facet normal 0.891004 -0.453995 0
    outer loop
      vertex -1.6168 0.525329 -0.5
      vertex -1.37533 0.999234 -2.01
      vertex -1.37533 0.999234 -0.5
    endloop
  endfacet
  facet normal 0.891004 -0.453995 0
    outer loop
      vertex -1.37533 0.999234 -2.01
      vertex -1.6168 0.525329 -0.5
      vertex -1.6168 0.525329 -2.01
    endloop
  endfacet
  facet normal 0.156427 0.987689 -0
    outer loop
      vertex 0 -1.7 -2.01
      vertex -0.525329 -1.6168 -0.5
      vertex 0 -1.7 -0.5
    endloop
  endfacet
  facet normal 0.156427 0.987689 0
    outer loop
      vertex -0.525329 -1.6168 -0.5
      vertex 0 -1.7 -2.01
      vertex -0.525329 -1.6168 -2.01
    endloop
  endfacet
  facet normal 0.707107 -0.707107 0
    outer loop
      vertex -1.37533 0.999234 -0.5
      vertex -0.999234 1.37533 -2.01
      vertex -0.999234 1.37533 -0.5
    endloop
  endfacet
  facet normal 0.707107 -0.707107 0
    outer loop
      vertex -0.999234 1.37533 -2.01
      vertex -1.37533 0.999234 -0.5
      vertex -1.37533 0.999234 -2.01
    endloop
  endfacet
  facet normal 0.707107 0.707107 0
    outer loop
      vertex -0.999234 -1.37533 -0.5
      vertex -1.37533 -0.999234 -2.01
      vertex -1.37533 -0.999234 -0.5
    endloop
  endfacet
  facet normal 0.707107 0.707107 0
    outer loop
      vertex -1.37533 -0.999234 -2.01
      vertex -0.999234 -1.37533 -0.5
      vertex -0.999234 -1.37533 -2.01
    endloop
  endfacet
  facet normal 0.987689 -0.156427 0
    outer loop
      vertex -1.7 0 -0.5
      vertex -1.6168 0.525329 -2.01
      vertex -1.6168 0.525329 -0.5
    endloop
  endfacet
  facet normal 0.987689 -0.156427 0
    outer loop
      vertex -1.6168 0.525329 -2.01
      vertex -1.7 0 -0.5
      vertex -1.7 0 -2.01
    endloop
  endfacet
  facet normal 0.453995 -0.891004 0
    outer loop
      vertex -0.999234 1.37533 -2.01
      vertex -0.525329 1.6168 -0.5
      vertex -0.999234 1.37533 -0.5
    endloop
  endfacet
  facet normal 0.453995 -0.891004 0
    outer loop
      vertex -0.525329 1.6168 -0.5
      vertex -0.999234 1.37533 -2.01
      vertex -0.525329 1.6168 -2.01
    endloop
  endfacet
  facet normal 0 0 1
    outer loop
      vertex 4 0 0
      vertex 5 0 0
      vertex 4.97261 0.522642 0
    endloop
  endfacet
  facet normal 0 0 1
    outer loop
      vertex 3.97809 0.418114 0
      vertex 4.97261 0.522642 0
      vertex 4.89074 1.03956 0
    endloop
  endfacet
  facet normal 0 0 1
    outer loop
      vertex 5 0 0
      vertex 4 0 0
      vertex 4.97261 -0.522642 0
    endloop
  endfacet
  facet normal 0 0 1
    outer loop
      vertex 3.91259 0.831646 0
      vertex 4.89074 1.03956 0
      vertex 4.75528 1.54508 0
    endloop
  endfacet
  facet normal -0 0 1
    outer loop
      vertex 3.97809 -0.418114 0
      vertex 4.97261 -0.522642 0
      vertex 4 0 0
    endloop
  endfacet
  facet normal 0 0 1
    outer loop
      vertex 3.80423 1.23607 0
      vertex 4.75528 1.54508 0
      vertex 4.56773 2.03368 0
    endloop
  endfacet
  facet normal 0 0 1
    outer loop
      vertex 4.97261 -0.522642 0
      vertex 3.97809 -0.418114 0
      vertex 4.89074 -1.03956 0
    endloop
  endfacet
  facet normal 0 0 1
    outer loop
      vertex 3.65418 1.62695 0
      vertex 4.56773 2.03368 0
      vertex 4.33013 2.5 0
    endloop
  endfacet
  facet normal -0 0 1
    outer loop
      vertex 3.91259 -0.831646 0
      vertex 4.89074 -1.03956 0
      vertex 3.97809 -0.418114 0
    endloop
  endfacet
  facet normal 0 0 1
    outer loop
      vertex 3.4641 2 0
      vertex 4.33013 2.5 0
      vertex 4.04508 2.93893 0
    endloop
  endfacet
  facet normal 0 0 1
    outer loop
      vertex 4.89074 -1.03956 0
      vertex 3.91259 -0.831646 0
      vertex 4.75528 -1.54508 0
    endloop
  endfacet
  facet normal -0 0 1
    outer loop
      vertex 3.80423 -1.23607 0
      vertex 4.75528 -1.54508 0
      vertex 3.91259 -0.831646 0
    endloop
  endfacet
  facet normal 0 0 1
    outer loop
      vertex 4.97261 0.522642 0
      vertex 3.97809 0.418114 0
      vertex 4 0 0
    endloop
  endfacet
  facet normal 0 0 1
    outer loop
      vertex 4.89074 1.03956 0
      vertex 3.91259 0.831646 0
      vertex 3.97809 0.418114 0
    endloop
  endfacet
  facet normal 0 0 1
    outer loop
      vertex 4.75528 1.54508 0
      vertex 3.80423 1.23607 0
      vertex 3.91259 0.831646 0
    endloop
  endfacet
  facet normal 0 0 1
    outer loop
      vertex 3.23607 2.35114 0
      vertex 4.04508 2.93893 0
      vertex 3.71572 3.34565 0
    endloop
  endfacet
  facet normal 0 0 1
    outer loop
      vertex 4.56773 2.03368 0
      vertex 3.65418 1.62695 0
      vertex 3.80423 1.23607 0
    endloop
  endfacet
  facet normal 0 0 1
    outer loop
      vertex 4.33013 2.5 0
      vertex 3.4641 2 0
      vertex 3.65418 1.62695 0
    endloop
  endfacet
  facet normal 0 0 1
    outer loop
      vertex 2.97258 2.67652 0
      vertex 3.71572 3.34565 0
      vertex 3.34565 3.71572 0
    endloop
  endfacet
  facet normal 0 0 1
    outer loop
      vertex 4.04508 2.93893 0
      vertex 3.23607 2.35114 0
      vertex 3.4641 2 0
    endloop
  endfacet
  facet normal 0 0 1
    outer loop
      vertex 3.71572 3.34565 0
      vertex 2.97258 2.67652 0
      vertex 3.23607 2.35114 0
    endloop
  endfacet
  facet normal 0 0 1
    outer loop
      vertex 2.67652 2.97258 0
      vertex 3.34565 3.71572 0
      vertex 2.93893 4.04508 0
    endloop
  endfacet
  facet normal 0 0 1
    outer loop
      vertex 3.34565 3.71572 0
      vertex 2.67652 2.97258 0
      vertex 2.97258 2.67652 0
    endloop
  endfacet
  facet normal 0 0 1
    outer loop
      vertex 2.35114 3.23607 0
      vertex 2.93893 4.04508 0
      vertex 2.5 4.33013 0
    endloop
  endfacet
  facet normal 0 0 1
    outer loop
      vertex 2.93893 4.04508 0
      vertex 2.35114 3.23607 0
      vertex 2.67652 2.97258 0
    endloop
  endfacet
  facet normal 0 0 1
    outer loop
      vertex 2 3.4641 0
      vertex 2.5 4.33013 0
      vertex 2.03368 4.56773 0
    endloop
  endfacet
  facet normal 0 0 1
    outer loop
      vertex 2.5 4.33013 0
      vertex 2 3.4641 0
      vertex 2.35114 3.23607 0
    endloop
  endfacet
  facet normal 0 0 1
    outer loop
      vertex 2.03368 4.56773 0
      vertex 1.62695 3.65418 0
      vertex 2 3.4641 0
    endloop
  endfacet
  facet normal 0 0 1
    outer loop
      vertex 1.54508 4.75528 0
      vertex 1.62695 3.65418 0
      vertex 2.03368 4.56773 0
    endloop
  endfacet
  facet normal 0 0 1
    outer loop
      vertex 1.54508 4.75528 0
      vertex 1.23607 3.80423 0
      vertex 1.62695 3.65418 0
    endloop
  endfacet
  facet normal 0 0 1
    outer loop
      vertex 1.03956 4.89074 0
      vertex 1.23607 3.80423 0
      vertex 1.54508 4.75528 0
    endloop
  endfacet
  facet normal 0 0 1
    outer loop
      vertex 1.03956 4.89074 0
      vertex 0.831646 3.91259 0
      vertex 1.23607 3.80423 0
    endloop
  endfacet
  facet normal 0 0 1
    outer loop
      vertex 0.522642 4.97261 0
      vertex 0.831646 3.91259 0
      vertex 1.03956 4.89074 0
    endloop
  endfacet
  facet normal 0 0 1
    outer loop
      vertex 0.522642 4.97261 0
      vertex 0.418114 3.97809 0
      vertex 0.831646 3.91259 0
    endloop
  endfacet
  facet normal 0 0 1
    outer loop
      vertex 0 5 0
      vertex 0.418114 3.97809 0
      vertex 0.522642 4.97261 0
    endloop
  endfacet
  facet normal 0 0 1
    outer loop
      vertex 0 5 0
      vertex 0 4 0
      vertex 0.418114 3.97809 0
    endloop
  endfacet
  facet normal 0 0 1
    outer loop
      vertex 0 5 0
      vertex -0.418114 3.97809 0
      vertex 0 4 0
    endloop
  endfacet
  facet normal -0 0 1
    outer loop
      vertex -0.522642 4.97261 0
      vertex -0.418114 3.97809 0
      vertex 0 5 0
    endloop
  endfacet
  facet normal 0 0 1
    outer loop
      vertex -0.522642 4.97261 0
      vertex -0.831646 3.91259 0
      vertex -0.418114 3.97809 0
    endloop
  endfacet
  facet normal -0 0 1
    outer loop
      vertex -1.03956 4.89074 0
      vertex -0.831646 3.91259 0
      vertex -0.522642 4.97261 0
    endloop
  endfacet
  facet normal 0 0 1
    outer loop
      vertex -1.03956 4.89074 0
      vertex -1.23607 3.80423 0
      vertex -0.831646 3.91259 0
    endloop
  endfacet
  facet normal -0 0 1
    outer loop
      vertex -1.54508 4.75528 0
      vertex -1.23607 3.80423 0
      vertex -1.03956 4.89074 0
    endloop
  endfacet
  facet normal 0 0 1
    outer loop
      vertex -1.54508 4.75528 0
      vertex -1.62695 3.65418 0
      vertex -1.23607 3.80423 0
    endloop
  endfacet
  facet normal -0 0 1
    outer loop
      vertex -2.03368 4.56773 0
      vertex -1.62695 3.65418 0
      vertex -1.54508 4.75528 0
    endloop
  endfacet
  facet normal 0 0 1
    outer loop
      vertex -1.62695 3.65418 0
      vertex -2.03368 4.56773 0
      vertex -2 3.4641 0
    endloop
  endfacet
  facet normal -0 0 1
    outer loop
      vertex -2.5 4.33013 0
      vertex -2 3.4641 0
      vertex -2.03368 4.56773 0
    endloop
  endfacet
  facet normal 0 0 1
    outer loop
      vertex -2 3.4641 0
      vertex -2.5 4.33013 0
      vertex -2.35114 3.23607 0
    endloop
  endfacet
  facet normal -0 0 1
    outer loop
      vertex -2.93893 4.04508 0
      vertex -2.35114 3.23607 0
      vertex -2.5 4.33013 0
    endloop
  endfacet
  facet normal 0 0 1
    outer loop
      vertex -2.35114 3.23607 0
      vertex -2.93893 4.04508 0
      vertex -2.67652 2.97258 0
    endloop
  endfacet
  facet normal -0 0 1
    outer loop
      vertex -3.34565 3.71572 0
      vertex -2.67652 2.97258 0
      vertex -2.93893 4.04508 0
    endloop
  endfacet
  facet normal 0 0 1
    outer loop
      vertex -2.67652 2.97258 0
      vertex -3.34565 3.71572 0
      vertex -2.97258 2.67652 0
    endloop
  endfacet
  facet normal -0 0 1
    outer loop
      vertex -3.71572 3.34565 0
      vertex -2.97258 2.67652 0
      vertex -3.34565 3.71572 0
    endloop
  endfacet
  facet normal 0 0 1
    outer loop
      vertex -2.97258 2.67652 0
      vertex -3.71572 3.34565 0
      vertex -3.23607 2.35114 0
    endloop
  endfacet
  facet normal -0 0 1
    outer loop
      vertex -4.04508 2.93893 0
      vertex -3.23607 2.35114 0
      vertex -3.71572 3.34565 0
    endloop
  endfacet
  facet normal 0 0 1
    outer loop
      vertex -3.23607 2.35114 0
      vertex -4.04508 2.93893 0
      vertex -3.4641 2 0
    endloop
  endfacet
  facet normal -0 0 1
    outer loop
      vertex -4.33013 2.5 0
      vertex -3.4641 2 0
      vertex -4.04508 2.93893 0
    endloop
  endfacet
  facet normal 0 0 1
    outer loop
      vertex -3.4641 2 0
      vertex -4.33013 2.5 0
      vertex -3.65418 1.62695 0
    endloop
  endfacet
  facet normal -0 0 1
    outer loop
      vertex -4.56773 2.03368 0
      vertex -3.65418 1.62695 0
      vertex -4.33013 2.5 0
    endloop
  endfacet
  facet normal -0 0 1
    outer loop
      vertex -4.75528 1.54508 0
      vertex -3.80423 1.23607 0
      vertex -4.56773 2.03368 0
    endloop
  endfacet
  facet normal 0 0 1
    outer loop
      vertex -3.65418 1.62695 0
      vertex -4.56773 2.03368 0
      vertex -3.80423 1.23607 0
    endloop
  endfacet
  facet normal 0 0 1
    outer loop
      vertex 4.75528 -1.54508 0
      vertex 3.80423 -1.23607 0
      vertex 4.56773 -2.03368 0
    endloop
  endfacet
  facet normal -0 0 1
    outer loop
      vertex 3.65418 -1.62695 0
      vertex 4.56773 -2.03368 0
      vertex 3.80423 -1.23607 0
    endloop
  endfacet
  facet normal 0 0 1
    outer loop
      vertex 4.56773 -2.03368 0
      vertex 3.65418 -1.62695 0
      vertex 4.33013 -2.5 0
    endloop
  endfacet
  facet normal -0 0 1
    outer loop
      vertex 3.4641 -2 0
      vertex 4.33013 -2.5 0
      vertex 3.65418 -1.62695 0
    endloop
  endfacet
  facet normal 0 0 1
    outer loop
      vertex 4.33013 -2.5 0
      vertex 3.4641 -2 0
      vertex 4.04508 -2.93893 0
    endloop
  endfacet
  facet normal -0 0 1
    outer loop
      vertex 3.23607 -2.35114 0
      vertex 4.04508 -2.93893 0
      vertex 3.4641 -2 0
    endloop
  endfacet
  facet normal 0 0 1
    outer loop
      vertex 4.04508 -2.93893 0
      vertex 3.23607 -2.35114 0
      vertex 3.71572 -3.34565 0
    endloop
  endfacet
  facet normal -0 0 1
    outer loop
      vertex 2.97258 -2.67652 0
      vertex 3.71572 -3.34565 0
      vertex 3.23607 -2.35114 0
    endloop
  endfacet
  facet normal 0 0 1
    outer loop
      vertex 3.71572 -3.34565 0
      vertex 2.97258 -2.67652 0
      vertex 3.34565 -3.71572 0
    endloop
  endfacet
  facet normal -0 0 1
    outer loop
      vertex 2.67652 -2.97258 0
      vertex 3.34565 -3.71572 0
      vertex 2.97258 -2.67652 0
    endloop
  endfacet
  facet normal 0 0 1
    outer loop
      vertex 3.34565 -3.71572 0
      vertex 2.67652 -2.97258 0
      vertex 2.93893 -4.04508 0
    endloop
  endfacet
  facet normal -0 0 1
    outer loop
      vertex 2.35114 -3.23607 0
      vertex 2.93893 -4.04508 0
      vertex 2.67652 -2.97258 0
    endloop
  endfacet
  facet normal 0 0 1
    outer loop
      vertex 2.93893 -4.04508 0
      vertex 2.35114 -3.23607 0
      vertex 2.5 -4.33013 0
    endloop
  endfacet
  facet normal -0 0 1
    outer loop
      vertex 2 -3.4641 0
      vertex 2.5 -4.33013 0
      vertex 2.35114 -3.23607 0
    endloop
  endfacet
  facet normal 0 0 1
    outer loop
      vertex 2.5 -4.33013 0
      vertex 2 -3.4641 0
      vertex 2.03368 -4.56773 0
    endloop
  endfacet
  facet normal -0 0 1
    outer loop
      vertex 1.62695 -3.65418 0
      vertex 2.03368 -4.56773 0
      vertex 2 -3.4641 0
    endloop
  endfacet
  facet normal 0 0 1
    outer loop
      vertex 1.62695 -3.65418 0
      vertex 1.54508 -4.75528 0
      vertex 2.03368 -4.56773 0
    endloop
  endfacet
  facet normal -0 0 1
    outer loop
      vertex 1.23607 -3.80423 0
      vertex 1.54508 -4.75528 0
      vertex 1.62695 -3.65418 0
    endloop
  endfacet
  facet normal 0 0 1
    outer loop
      vertex 1.23607 -3.80423 0
      vertex 1.03956 -4.89074 0
      vertex 1.54508 -4.75528 0
    endloop
  endfacet
  facet normal -0 0 1
    outer loop
      vertex 0.831646 -3.91259 0
      vertex 1.03956 -4.89074 0
      vertex 1.23607 -3.80423 0
    endloop
  endfacet
  facet normal 0 0 1
    outer loop
      vertex 0.831646 -3.91259 0
      vertex 0.522642 -4.97261 0
      vertex 1.03956 -4.89074 0
    endloop
  endfacet
  facet normal -0 0 1
    outer loop
      vertex 0.418114 -3.97809 0
      vertex 0.522642 -4.97261 0
      vertex 0.831646 -3.91259 0
    endloop
  endfacet
  facet normal -0 0 1
    outer loop
      vertex 0 -4 0
      vertex 0.522642 -4.97261 0
      vertex 0.418114 -3.97809 0
    endloop
  endfacet
  facet normal 0 0 1
    outer loop
      vertex 0 -4 0
      vertex 0 -5 0
      vertex 0.522642 -4.97261 0
    endloop
  endfacet
  facet normal 0 0 1
    outer loop
      vertex -0.418114 -3.97809 0
      vertex 0 -5 0
      vertex 0 -4 0
    endloop
  endfacet
  facet normal 0 0 1
    outer loop
      vertex -0.418114 -3.97809 0
      vertex -0.522642 -4.97261 0
      vertex 0 -5 0
    endloop
  endfacet
  facet normal 0 0 1
    outer loop
      vertex -0.831646 -3.91259 0
      vertex -0.522642 -4.97261 0
      vertex -0.418114 -3.97809 0
    endloop
  endfacet
  facet normal 0 0 1
    outer loop
      vertex -0.831646 -3.91259 0
      vertex -1.03956 -4.89074 0
      vertex -0.522642 -4.97261 0
    endloop
  endfacet
  facet normal 0 0 1
    outer loop
      vertex -1.23607 -3.80423 0
      vertex -1.03956 -4.89074 0
      vertex -0.831646 -3.91259 0
    endloop
  endfacet
  facet normal 0 0 1
    outer loop
      vertex -1.23607 -3.80423 0
      vertex -1.54508 -4.75528 0
      vertex -1.03956 -4.89074 0
    endloop
  endfacet
  facet normal 0 0 1
    outer loop
      vertex -1.62695 -3.65418 0
      vertex -1.54508 -4.75528 0
      vertex -1.23607 -3.80423 0
    endloop
  endfacet
  facet normal 0 0 1
    outer loop
      vertex -2.03368 -4.56773 0
      vertex -1.62695 -3.65418 0
      vertex -2 -3.4641 0
    endloop
  endfacet
  facet normal 0 0 1
    outer loop
      vertex -1.62695 -3.65418 0
      vertex -2.03368 -4.56773 0
      vertex -1.54508 -4.75528 0
    endloop
  endfacet
  facet normal 0 0 1
    outer loop
      vertex -2.5 -4.33013 0
      vertex -2 -3.4641 0
      vertex -2.35114 -3.23607 0
    endloop
  endfacet
  facet normal 0 0 1
    outer loop
      vertex -2 -3.4641 0
      vertex -2.5 -4.33013 0
      vertex -2.03368 -4.56773 0
    endloop
  endfacet
  facet normal 0 0 1
    outer loop
      vertex -2.93893 -4.04508 0
      vertex -2.35114 -3.23607 0
      vertex -2.67652 -2.97258 0
    endloop
  endfacet
  facet normal 0 0 1
    outer loop
      vertex -2.35114 -3.23607 0
      vertex -2.93893 -4.04508 0
      vertex -2.5 -4.33013 0
    endloop
  endfacet
  facet normal 0 0 1
    outer loop
      vertex -3.34565 -3.71572 0
      vertex -2.67652 -2.97258 0
      vertex -2.97258 -2.67652 0
    endloop
  endfacet
  facet normal 0 0 1
    outer loop
      vertex -3.71572 -3.34565 0
      vertex -2.97258 -2.67652 0
      vertex -3.23607 -2.35114 0
    endloop
  endfacet
  facet normal 0 0 1
    outer loop
      vertex -2.67652 -2.97258 0
      vertex -3.34565 -3.71572 0
      vertex -2.93893 -4.04508 0
    endloop
  endfacet
  facet normal 0 0 1
    outer loop
      vertex -4.04508 -2.93893 0
      vertex -3.23607 -2.35114 0
      vertex -3.4641 -2 0
    endloop
  endfacet
  facet normal 0 0 1
    outer loop
      vertex -4.33013 -2.5 0
      vertex -3.4641 -2 0
      vertex -3.65418 -1.62695 0
    endloop
  endfacet
  facet normal 0 0 1
    outer loop
      vertex -2.97258 -2.67652 0
      vertex -3.71572 -3.34565 0
      vertex -3.34565 -3.71572 0
    endloop
  endfacet
  facet normal 0 0 1
    outer loop
      vertex -4.56773 -2.03368 0
      vertex -3.65418 -1.62695 0
      vertex -3.80423 -1.23607 0
    endloop
  endfacet
  facet normal 0 0 1
    outer loop
      vertex -4.75528 -1.54508 0
      vertex -3.80423 -1.23607 0
      vertex -3.91259 -0.831646 0
    endloop
  endfacet
  facet normal 0 0 1
    outer loop
      vertex -4.89074 -1.03956 0
      vertex -3.91259 -0.831646 0
      vertex -3.97809 -0.418114 0
    endloop
  endfacet
  facet normal 0 0 1
    outer loop
      vertex -3.23607 -2.35114 0
      vertex -4.04508 -2.93893 0
      vertex -3.71572 -3.34565 0
    endloop
  endfacet
  facet normal 0 0 1
    outer loop
      vertex -4.97261 -0.522642 0
      vertex -3.97809 -0.418114 0
      vertex -4 0 0
    endloop
  endfacet
  facet normal 0 0 1
    outer loop
      vertex -3.80423 1.23607 0
      vertex -4.75528 1.54508 0
      vertex -3.91259 0.831646 0
    endloop
  endfacet
  facet normal -0 0 1
    outer loop
      vertex -4.89074 1.03956 0
      vertex -3.91259 0.831646 0
      vertex -4.75528 1.54508 0
    endloop
  endfacet
  facet normal 0 0 1
    outer loop
      vertex -3.4641 -2 0
      vertex -4.33013 -2.5 0
      vertex -4.04508 -2.93893 0
    endloop
  endfacet
  facet normal 0 0 1
    outer loop
      vertex -3.91259 0.831646 0
      vertex -4.89074 1.03956 0
      vertex -3.97809 0.418114 0
    endloop
  endfacet
  facet normal 0 0 1
    outer loop
      vertex -3.65418 -1.62695 0
      vertex -4.56773 -2.03368 0
      vertex -4.33013 -2.5 0
    endloop
  endfacet
  facet normal -0 0 1
    outer loop
      vertex -4.97261 0.522642 0
      vertex -3.97809 0.418114 0
      vertex -4.89074 1.03956 0
    endloop
  endfacet
  facet normal 0 0 1
    outer loop
      vertex -3.80423 -1.23607 0
      vertex -4.75528 -1.54508 0
      vertex -4.56773 -2.03368 0
    endloop
  endfacet
  facet normal 0 0 1
    outer loop
      vertex -3.97809 0.418114 0
      vertex -4.97261 0.522642 0
      vertex -4 0 0
    endloop
  endfacet
  facet normal 0 0 1
    outer loop
      vertex -3.91259 -0.831646 0
      vertex -4.89074 -1.03956 0
      vertex -4.75528 -1.54508 0
    endloop
  endfacet
  facet normal 0 0 1
    outer loop
      vertex -5 0 0
      vertex -4 0 0
      vertex -4.97261 0.522642 0
    endloop
  endfacet
  facet normal 0 0 1
    outer loop
      vertex -3.97809 -0.418114 0
      vertex -4.97261 -0.522642 0
      vertex -4.89074 -1.03956 0
    endloop
  endfacet
  facet normal 0 0 1
    outer loop
      vertex -4 0 0
      vertex -5 0 0
      vertex -4.97261 -0.522642 0
    endloop
  endfacet
  facet normal 0.156431 -0.987689 0
    outer loop
      vertex 0.522642 -4.97261 -2.01
      vertex 1.03956 -4.89074 0
      vertex 0.522642 -4.97261 0
    endloop
  endfacet
  facet normal 0.156431 -0.987689 0
    outer loop
      vertex 1.03956 -4.89074 0
      vertex 0.522642 -4.97261 -2.01
      vertex 1.03956 -4.89074 -2.01
    endloop
  endfacet
  facet normal 0.987689 -0.156431 0
    outer loop
      vertex 4.89074 -1.03956 0
      vertex 4.97261 -0.522642 -2.01
      vertex 4.97261 -0.522642 0
    endloop
  endfacet
  facet normal 0.987689 -0.156431 0
    outer loop
      vertex 4.97261 -0.522642 -2.01
      vertex 4.89074 -1.03956 0
      vertex 4.89074 -1.03956 -2.01
    endloop
  endfacet
  facet normal 0.99863 -0.052335 0
    outer loop
      vertex 4.97261 -0.522642 0
      vertex 5 0 -2.01
      vertex 5 0 0
    endloop
  endfacet
  facet normal 0.99863 -0.052335 0
    outer loop
      vertex 5 0 -2.01
      vertex 4.97261 -0.522642 0
      vertex 4.97261 -0.522642 -2.01
    endloop
  endfacet
  facet normal 0.965923 -0.25883 0
    outer loop
      vertex 4.75528 -1.54508 0
      vertex 4.89074 -1.03956 -2.01
      vertex 4.89074 -1.03956 0
    endloop
  endfacet
  facet normal 0.965923 -0.25883 0
    outer loop
      vertex 4.89074 -1.03956 -2.01
      vertex 4.75528 -1.54508 0
      vertex 4.75528 -1.54508 -2.01
    endloop
  endfacet
  facet normal -0.052335 -0.99863 0
    outer loop
      vertex -0.522642 -4.97261 -2.01
      vertex 0 -5 0
      vertex -0.522642 -4.97261 0
    endloop
  endfacet
  facet normal -0.052335 -0.99863 -0
    outer loop
      vertex 0 -5 0
      vertex -0.522642 -4.97261 -2.01
      vertex 0 -5 -2.01
    endloop
  endfacet
  facet normal 0.052335 0.99863 -0
    outer loop
      vertex 0.522642 4.97261 -2.01
      vertex 0 5 0
      vertex 0.522642 4.97261 0
    endloop
  endfacet
  facet normal 0.052335 0.99863 0
    outer loop
      vertex 0 5 0
      vertex 0.522642 4.97261 -2.01
      vertex 0 5 -2.01
    endloop
  endfacet
  facet normal -0.987689 0.156431 0
    outer loop
      vertex -4.97261 0.522642 -2.01
      vertex -4.89074 1.03956 0
      vertex -4.89074 1.03956 -2.01
    endloop
  endfacet
  facet normal -0.987689 0.156431 0
    outer loop
      vertex -4.89074 1.03956 0
      vertex -4.97261 0.522642 -2.01
      vertex -4.97261 0.522642 0
    endloop
  endfacet
  facet normal -0.891008 -0.453988 0
    outer loop
      vertex -4.33013 -2.5 -2.01
      vertex -4.56773 -2.03368 0
      vertex -4.56773 -2.03368 -2.01
    endloop
  endfacet
  facet normal -0.891008 -0.453988 0
    outer loop
      vertex -4.56773 -2.03368 0
      vertex -4.33013 -2.5 -2.01
      vertex -4.33013 -2.5 0
    endloop
  endfacet
  facet normal -0.707107 -0.707107 0
    outer loop
      vertex -3.34565 -3.71572 -2.01
      vertex -3.71572 -3.34565 0
      vertex -3.71572 -3.34565 -2.01
    endloop
  endfacet
  facet normal -0.707107 -0.707107 0
    outer loop
      vertex -3.71572 -3.34565 0
      vertex -3.34565 -3.71572 -2.01
      vertex -3.34565 -3.71572 0
    endloop
  endfacet
  facet normal 0.707107 -0.707107 0
    outer loop
      vertex 3.34565 -3.71572 0
      vertex 3.71572 -3.34565 -2.01
      vertex 3.71572 -3.34565 0
    endloop
  endfacet
  facet normal 0.707107 -0.707107 0
    outer loop
      vertex 3.71572 -3.34565 -2.01
      vertex 3.34565 -3.71572 0
      vertex 3.34565 -3.71572 -2.01
    endloop
  endfacet
  facet normal 0.156431 0.987689 -0
    outer loop
      vertex 1.03956 4.89074 -2.01
      vertex 0.522642 4.97261 0
      vertex 1.03956 4.89074 0
    endloop
  endfacet
  facet normal 0.156431 0.987689 0
    outer loop
      vertex 0.522642 4.97261 0
      vertex 1.03956 4.89074 -2.01
      vertex 0.522642 4.97261 -2.01
    endloop
  endfacet
  facet normal 0.358358 -0.933584 0
    outer loop
      vertex 1.54508 -4.75528 -2.01
      vertex 2.03368 -4.56773 0
      vertex 1.54508 -4.75528 0
    endloop
  endfacet
  facet normal 0.358358 -0.933584 0
    outer loop
      vertex 2.03368 -4.56773 0
      vertex 1.54508 -4.75528 -2.01
      vertex 2.03368 -4.56773 -2.01
    endloop
  endfacet
  facet normal -0.965923 0.25883 0
    outer loop
      vertex -4.89074 1.03956 -2.01
      vertex -4.75528 1.54508 0
      vertex -4.75528 1.54508 -2.01
    endloop
  endfacet
  facet normal -0.965923 0.25883 0
    outer loop
      vertex -4.75528 1.54508 0
      vertex -4.89074 1.03956 -2.01
      vertex -4.89074 1.03956 0
    endloop
  endfacet
  facet normal 0.987689 0.156431 0
    outer loop
      vertex 4.97261 0.522642 0
      vertex 4.89074 1.03956 -2.01
      vertex 4.89074 1.03956 0
    endloop
  endfacet
  facet normal 0.987689 0.156431 0
    outer loop
      vertex 4.89074 1.03956 -2.01
      vertex 4.97261 0.522642 0
      vertex 4.97261 0.522642 -2.01
    endloop
  endfacet
  facet normal 0.629326 -0.777142 0
    outer loop
      vertex 2.93893 -4.04508 -2.01
      vertex 3.34565 -3.71572 0
      vertex 2.93893 -4.04508 0
    endloop
  endfacet
  facet normal 0.629326 -0.777142 0
    outer loop
      vertex 3.34565 -3.71572 0
      vertex 2.93893 -4.04508 -2.01
      vertex 3.34565 -3.71572 -2.01
    endloop
  endfacet
  facet normal 0.358358 0.933584 -0
    outer loop
      vertex 2.03368 4.56773 -2.01
      vertex 1.54508 4.75528 0
      vertex 2.03368 4.56773 0
    endloop
  endfacet
  facet normal 0.358358 0.933584 0
    outer loop
      vertex 1.54508 4.75528 0
      vertex 2.03368 4.56773 -2.01
      vertex 1.54508 4.75528 -2.01
    endloop
  endfacet
  facet normal 0.838666 -0.544646 0
    outer loop
      vertex 4.04508 -2.93893 0
      vertex 4.33013 -2.5 -2.01
      vertex 4.33013 -2.5 0
    endloop
  endfacet
  facet normal 0.838666 -0.544646 0
    outer loop
      vertex 4.33013 -2.5 -2.01
      vertex 4.04508 -2.93893 0
      vertex 4.04508 -2.93893 -2.01
    endloop
  endfacet
  facet normal -0.25883 -0.965923 0
    outer loop
      vertex -1.54508 -4.75528 -2.01
      vertex -1.03956 -4.89074 0
      vertex -1.54508 -4.75528 0
    endloop
  endfacet
  facet normal -0.25883 -0.965923 -0
    outer loop
      vertex -1.03956 -4.89074 0
      vertex -1.54508 -4.75528 -2.01
      vertex -1.03956 -4.89074 -2.01
    endloop
  endfacet
  facet normal 0.99863 0.052335 0
    outer loop
      vertex 5 0 0
      vertex 4.97261 0.522642 -2.01
      vertex 4.97261 0.522642 0
    endloop
  endfacet
  facet normal 0.99863 0.052335 0
    outer loop
      vertex 4.97261 0.522642 -2.01
      vertex 5 0 0
      vertex 5 0 -2.01
    endloop
  endfacet
  facet normal 0.933584 0.358358 0
    outer loop
      vertex 4.75528 1.54508 0
      vertex 4.56773 2.03368 -2.01
      vertex 4.56773 2.03368 0
    endloop
  endfacet
  facet normal 0.933584 0.358358 0
    outer loop
      vertex 4.56773 2.03368 -2.01
      vertex 4.75528 1.54508 0
      vertex 4.75528 1.54508 -2.01
    endloop
  endfacet
  facet normal 0.838666 0.544646 0
    outer loop
      vertex 4.33013 2.5 0
      vertex 4.04508 2.93893 -2.01
      vertex 4.04508 2.93893 0
    endloop
  endfacet
  facet normal 0.838666 0.544646 0
    outer loop
      vertex 4.04508 2.93893 -2.01
      vertex 4.33013 2.5 0
      vertex 4.33013 2.5 -2.01
    endloop
  endfacet
  facet normal -0.544646 -0.838666 0
    outer loop
      vertex -2.93893 -4.04508 -2.01
      vertex -2.5 -4.33013 0
      vertex -2.93893 -4.04508 0
    endloop
  endfacet
  facet normal -0.544646 -0.838666 -0
    outer loop
      vertex -2.5 -4.33013 0
      vertex -2.93893 -4.04508 -2.01
      vertex -2.5 -4.33013 -2.01
    endloop
  endfacet
  facet normal 0.965923 0.25883 0
    outer loop
      vertex 4.89074 1.03956 0
      vertex 4.75528 1.54508 -2.01
      vertex 4.75528 1.54508 0
    endloop
  endfacet
  facet normal 0.965923 0.25883 0
    outer loop
      vertex 4.75528 1.54508 -2.01
      vertex 4.89074 1.03956 0
      vertex 4.89074 1.03956 -2.01
    endloop
  endfacet
  facet normal -0.933584 -0.358358 0
    outer loop
      vertex -4.56773 -2.03368 -2.01
      vertex -4.75528 -1.54508 0
      vertex -4.75528 -1.54508 -2.01
    endloop
  endfacet
  facet normal -0.933584 -0.358358 0
    outer loop
      vertex -4.75528 -1.54508 0
      vertex -4.56773 -2.03368 -2.01
      vertex -4.56773 -2.03368 0
    endloop
  endfacet
  facet normal -0.629326 -0.777142 0
    outer loop
      vertex -3.34565 -3.71572 -2.01
      vertex -2.93893 -4.04508 0
      vertex -3.34565 -3.71572 0
    endloop
  endfacet
  facet normal -0.629326 -0.777142 -0
    outer loop
      vertex -2.93893 -4.04508 0
      vertex -3.34565 -3.71572 -2.01
      vertex -2.93893 -4.04508 -2.01
    endloop
  endfacet
  facet normal -0.838666 0.544646 0
    outer loop
      vertex -4.33013 2.5 -2.01
      vertex -4.04508 2.93893 0
      vertex -4.04508 2.93893 -2.01
    endloop
  endfacet
  facet normal -0.838666 0.544646 0
    outer loop
      vertex -4.04508 2.93893 0
      vertex -4.33013 2.5 -2.01
      vertex -4.33013 2.5 0
    endloop
  endfacet
  facet normal 0 0 -1
    outer loop
      vertex 1.7 0 -2.01
      vertex 5 0 -2.01
      vertex 4.97261 -0.522642 -2.01
    endloop
  endfacet
  facet normal 0 0 -1
    outer loop
      vertex 1.7 0 -2.01
      vertex 4.97261 -0.522642 -2.01
      vertex 4.89074 -1.03956 -2.01
    endloop
  endfacet
  facet normal 0 0 -1
    outer loop
      vertex 5 0 -2.01
      vertex 1.7 0 -2.01
      vertex 4.97261 0.522642 -2.01
    endloop
  endfacet
  facet normal 0 0 -1
    outer loop
      vertex 1.6168 -0.525329 -2.01
      vertex 4.89074 -1.03956 -2.01
      vertex 4.75528 -1.54508 -2.01
    endloop
  endfacet
  facet normal -0 0 -1
    outer loop
      vertex 4.97261 0.522642 -2.01
      vertex 1.7 0 -2.01
      vertex 4.89074 1.03956 -2.01
    endloop
  endfacet
  facet normal 0 0 -1
    outer loop
      vertex 1.6168 -0.525329 -2.01
      vertex 4.75528 -1.54508 -2.01
      vertex 4.56773 -2.03368 -2.01
    endloop
  endfacet
  facet normal 0 0 -1
    outer loop
      vertex 1.6168 0.525329 -2.01
      vertex 4.89074 1.03956 -2.01
      vertex 1.7 0 -2.01
    endloop
  endfacet
  facet normal 0 0 -1
    outer loop
      vertex 1.6168 -0.525329 -2.01
      vertex 4.56773 -2.03368 -2.01
      vertex 4.33013 -2.5 -2.01
    endloop
  endfacet
  facet normal -0 0 -1
    outer loop
      vertex 4.89074 1.03956 -2.01
      vertex 1.6168 0.525329 -2.01
      vertex 4.75528 1.54508 -2.01
    endloop
  endfacet
  facet normal 0 0 -1
    outer loop
      vertex 1.37533 -0.999234 -2.01
      vertex 4.33013 -2.5 -2.01
      vertex 4.04508 -2.93893 -2.01
    endloop
  endfacet
  facet normal -0 0 -1
    outer loop
      vertex 4.75528 1.54508 -2.01
      vertex 1.6168 0.525329 -2.01
      vertex 4.56773 2.03368 -2.01
    endloop
  endfacet
  facet normal 0 0 -1
    outer loop
      vertex 1.37533 -0.999234 -2.01
      vertex 4.04508 -2.93893 -2.01
      vertex 3.71572 -3.34565 -2.01
    endloop
  endfacet
  facet normal -0 0 -1
    outer loop
      vertex 4.56773 2.03368 -2.01
      vertex 1.6168 0.525329 -2.01
      vertex 4.33013 2.5 -2.01
    endloop
  endfacet
  facet normal 0 0 -1
    outer loop
      vertex 1.37533 -0.999234 -2.01
      vertex 3.71572 -3.34565 -2.01
      vertex 3.34565 -3.71572 -2.01
    endloop
  endfacet
  facet normal 0 0 -1
    outer loop
      vertex 1.37533 0.999234 -2.01
      vertex 4.33013 2.5 -2.01
      vertex 1.6168 0.525329 -2.01
    endloop
  endfacet
  facet normal 0 0 -1
    outer loop
      vertex 0.999234 -1.37533 -2.01
      vertex 3.34565 -3.71572 -2.01
      vertex 2.93893 -4.04508 -2.01
    endloop
  endfacet
  facet normal -0 0 -1
    outer loop
      vertex 4.33013 2.5 -2.01
      vertex 1.37533 0.999234 -2.01
      vertex 4.04508 2.93893 -2.01
    endloop
  endfacet
  facet normal 0 0 -1
    outer loop
      vertex 0.999234 -1.37533 -2.01
      vertex 2.93893 -4.04508 -2.01
      vertex 2.5 -4.33013 -2.01
    endloop
  endfacet
  facet normal -0 0 -1
    outer loop
      vertex 4.04508 2.93893 -2.01
      vertex 1.37533 0.999234 -2.01
      vertex 3.71572 3.34565 -2.01
    endloop
  endfacet
  facet normal 0 0 -1
    outer loop
      vertex 0.999234 -1.37533 -2.01
      vertex 2.5 -4.33013 -2.01
      vertex 2.03368 -4.56773 -2.01
    endloop
  endfacet
  facet normal -0 0 -1
    outer loop
      vertex 3.71572 3.34565 -2.01
      vertex 1.37533 0.999234 -2.01
      vertex 3.34565 3.71572 -2.01
    endloop
  endfacet
  facet normal 0 0 -1
    outer loop
      vertex 0.999234 1.37533 -2.01
      vertex 3.34565 3.71572 -2.01
      vertex 1.37533 0.999234 -2.01
    endloop
  endfacet
  facet normal 0 0 -1
    outer loop
      vertex 4.89074 -1.03956 -2.01
      vertex 1.6168 -0.525329 -2.01
      vertex 1.7 0 -2.01
    endloop
  endfacet
  facet normal 0 0 -1
    outer loop
      vertex 0.525329 -1.6168 -2.01
      vertex 2.03368 -4.56773 -2.01
      vertex 1.54508 -4.75528 -2.01
    endloop
  endfacet
  facet normal 0 0 -1
    outer loop
      vertex 4.33013 -2.5 -2.01
      vertex 1.37533 -0.999234 -2.01
      vertex 1.6168 -0.525329 -2.01
    endloop
  endfacet
  facet normal 0 0 -1
    outer loop
      vertex 0.525329 -1.6168 -2.01
      vertex 1.54508 -4.75528 -2.01
      vertex 1.03956 -4.89074 -2.01
    endloop
  endfacet
  facet normal 0 0 -1
    outer loop
      vertex 3.34565 -3.71572 -2.01
      vertex 0.999234 -1.37533 -2.01
      vertex 1.37533 -0.999234 -2.01
    endloop
  endfacet
  facet normal 0 0 -1
    outer loop
      vertex 2.03368 -4.56773 -2.01
      vertex 0.525329 -1.6168 -2.01
      vertex 0.999234 -1.37533 -2.01
    endloop
  endfacet
  facet normal 0 0 -1
    outer loop
      vertex 0.522642 -4.97261 -2.01
      vertex 0.525329 -1.6168 -2.01
      vertex 1.03956 -4.89074 -2.01
    endloop
  endfacet
  facet normal 0 0 -1
    outer loop
      vertex 0 -1.7 -2.01
      vertex 0.522642 -4.97261 -2.01
      vertex 0 -5 -2.01
    endloop
  endfacet
  facet normal 0 0 -1
    outer loop
      vertex 0.522642 -4.97261 -2.01
      vertex 0 -1.7 -2.01
      vertex 0.525329 -1.6168 -2.01
    endloop
  endfacet
  facet normal 0 0 -1
    outer loop
      vertex -0.522642 -4.97261 -2.01
      vertex 0 -1.7 -2.01
      vertex 0 -5 -2.01
    endloop
  endfacet
  facet normal 0 0 -1
    outer loop
      vertex -0.522642 -4.97261 -2.01
      vertex -0.525329 -1.6168 -2.01
      vertex 0 -1.7 -2.01
    endloop
  endfacet
  facet normal 0 0 -1
    outer loop
      vertex -1.03956 -4.89074 -2.01
      vertex -0.525329 -1.6168 -2.01
      vertex -0.522642 -4.97261 -2.01
    endloop
  endfacet
  facet normal 0 0 -1
    outer loop
      vertex -1.54508 -4.75528 -2.01
      vertex -0.525329 -1.6168 -2.01
      vertex -1.03956 -4.89074 -2.01
    endloop
  endfacet
  facet normal 0 0 -1
    outer loop
      vertex -2.03368 -4.56773 -2.01
      vertex -0.525329 -1.6168 -2.01
      vertex -1.54508 -4.75528 -2.01
    endloop
  endfacet
  facet normal -0 0 -1
    outer loop
      vertex -0.525329 -1.6168 -2.01
      vertex -2.03368 -4.56773 -2.01
      vertex -0.999234 -1.37533 -2.01
    endloop
  endfacet
  facet normal 0 0 -1
    outer loop
      vertex -2.5 -4.33013 -2.01
      vertex -0.999234 -1.37533 -2.01
      vertex -2.03368 -4.56773 -2.01
    endloop
  endfacet
  facet normal 0 0 -1
    outer loop
      vertex -2.93893 -4.04508 -2.01
      vertex -0.999234 -1.37533 -2.01
      vertex -2.5 -4.33013 -2.01
    endloop
  endfacet
  facet normal 0 0 -1
    outer loop
      vertex -3.34565 -3.71572 -2.01
      vertex -0.999234 -1.37533 -2.01
      vertex -2.93893 -4.04508 -2.01
    endloop
  endfacet
  facet normal -0 0 -1
    outer loop
      vertex 3.34565 3.71572 -2.01
      vertex 0.999234 1.37533 -2.01
      vertex 2.93893 4.04508 -2.01
    endloop
  endfacet
  facet normal -0 0 -1
    outer loop
      vertex 2.93893 4.04508 -2.01
      vertex 0.999234 1.37533 -2.01
      vertex 2.5 4.33013 -2.01
    endloop
  endfacet
  facet normal -0 0 -1
    outer loop
      vertex 2.5 4.33013 -2.01
      vertex 0.999234 1.37533 -2.01
      vertex 2.03368 4.56773 -2.01
    endloop
  endfacet
  facet normal 0 0 -1
    outer loop
      vertex 0.525329 1.6168 -2.01
      vertex 2.03368 4.56773 -2.01
      vertex 0.999234 1.37533 -2.01
    endloop
  endfacet
  facet normal -0 0 -1
    outer loop
      vertex 2.03368 4.56773 -2.01
      vertex 0.525329 1.6168 -2.01
      vertex 1.54508 4.75528 -2.01
    endloop
  endfacet
  facet normal -0 0 -1
    outer loop
      vertex 1.54508 4.75528 -2.01
      vertex 0.525329 1.6168 -2.01
      vertex 1.03956 4.89074 -2.01
    endloop
  endfacet
  facet normal 0 0 -1
    outer loop
      vertex 0.525329 1.6168 -2.01
      vertex 0.522642 4.97261 -2.01
      vertex 1.03956 4.89074 -2.01
    endloop
  endfacet
  facet normal 0 0 -1
    outer loop
      vertex 0 1.7 -2.01
      vertex 0.522642 4.97261 -2.01
      vertex 0.525329 1.6168 -2.01
    endloop
  endfacet
  facet normal 0 0 -1
    outer loop
      vertex 0 1.7 -2.01
      vertex 0 5 -2.01
      vertex 0.522642 4.97261 -2.01
    endloop
  endfacet
  facet normal 0 0 -1
    outer loop
      vertex 0 1.7 -2.01
      vertex -0.522642 4.97261 -2.01
      vertex 0 5 -2.01
    endloop
  endfacet
  facet normal 0 0 -1
    outer loop
      vertex -0.525329 1.6168 -2.01
      vertex -0.522642 4.97261 -2.01
      vertex 0 1.7 -2.01
    endloop
  endfacet
  facet normal 0 0 -1
    outer loop
      vertex -2.03368 4.56773 -2.01
      vertex -0.525329 1.6168 -2.01
      vertex -0.999234 1.37533 -2.01
    endloop
  endfacet
  facet normal 0 0 -1
    outer loop
      vertex -0.525329 1.6168 -2.01
      vertex -1.03956 4.89074 -2.01
      vertex -0.522642 4.97261 -2.01
    endloop
  endfacet
  facet normal 0 0 -1
    outer loop
      vertex -3.34565 3.71572 -2.01
      vertex -0.999234 1.37533 -2.01
      vertex -1.37533 0.999234 -2.01
    endloop
  endfacet
  facet normal 0 0 -1
    outer loop
      vertex -0.525329 1.6168 -2.01
      vertex -1.54508 4.75528 -2.01
      vertex -1.03956 4.89074 -2.01
    endloop
  endfacet
  facet normal 0 0 -1
    outer loop
      vertex -4.33013 2.5 -2.01
      vertex -1.37533 0.999234 -2.01
      vertex -1.6168 0.525329 -2.01
    endloop
  endfacet
  facet normal 0 0 -1
    outer loop
      vertex -4.89074 1.03956 -2.01
      vertex -1.6168 0.525329 -2.01
      vertex -1.7 0 -2.01
    endloop
  endfacet
  facet normal -0 0 -1
    outer loop
      vertex -0.999234 -1.37533 -2.01
      vertex -3.34565 -3.71572 -2.01
      vertex -1.37533 -0.999234 -2.01
    endloop
  endfacet
  facet normal 0 0 -1
    outer loop
      vertex -0.525329 1.6168 -2.01
      vertex -2.03368 4.56773 -2.01
      vertex -1.54508 4.75528 -2.01
    endloop
  endfacet
  facet normal 0 0 -1
    outer loop
      vertex -3.71572 -3.34565 -2.01
      vertex -1.37533 -0.999234 -2.01
      vertex -3.34565 -3.71572 -2.01
    endloop
  endfacet
  facet normal 0 0 -1
    outer loop
      vertex -0.999234 1.37533 -2.01
      vertex -2.5 4.33013 -2.01
      vertex -2.03368 4.56773 -2.01
    endloop
  endfacet
  facet normal 0 0 -1
    outer loop
      vertex -4.04508 -2.93893 -2.01
      vertex -1.37533 -0.999234 -2.01
      vertex -3.71572 -3.34565 -2.01
    endloop
  endfacet
  facet normal 0 0 -1
    outer loop
      vertex -0.999234 1.37533 -2.01
      vertex -2.93893 4.04508 -2.01
      vertex -2.5 4.33013 -2.01
    endloop
  endfacet
  facet normal 0 0 -1
    outer loop
      vertex -4.33013 -2.5 -2.01
      vertex -1.37533 -0.999234 -2.01
      vertex -4.04508 -2.93893 -2.01
    endloop
  endfacet
  facet normal 0 0 -1
    outer loop
      vertex -0.999234 1.37533 -2.01
      vertex -3.34565 3.71572 -2.01
      vertex -2.93893 4.04508 -2.01
    endloop
  endfacet
  facet normal -0 0 -1
    outer loop
      vertex -1.37533 -0.999234 -2.01
      vertex -4.33013 -2.5 -2.01
      vertex -1.6168 -0.525329 -2.01
    endloop
  endfacet
  facet normal 0 0 -1
    outer loop
      vertex -1.37533 0.999234 -2.01
      vertex -3.71572 3.34565 -2.01
      vertex -3.34565 3.71572 -2.01
    endloop
  endfacet
  facet normal 0 0 -1
    outer loop
      vertex -4.56773 -2.03368 -2.01
      vertex -1.6168 -0.525329 -2.01
      vertex -4.33013 -2.5 -2.01
    endloop
  endfacet
  facet normal 0 0 -1
    outer loop
      vertex -1.37533 0.999234 -2.01
      vertex -4.04508 2.93893 -2.01
      vertex -3.71572 3.34565 -2.01
    endloop
  endfacet
  facet normal 0 0 -1
    outer loop
      vertex -4.75528 -1.54508 -2.01
      vertex -1.6168 -0.525329 -2.01
      vertex -4.56773 -2.03368 -2.01
    endloop
  endfacet
  facet normal 0 0 -1
    outer loop
      vertex -1.37533 0.999234 -2.01
      vertex -4.33013 2.5 -2.01
      vertex -4.04508 2.93893 -2.01
    endloop
  endfacet
  facet normal 0 0 -1
    outer loop
      vertex -4.89074 -1.03956 -2.01
      vertex -1.6168 -0.525329 -2.01
      vertex -4.75528 -1.54508 -2.01
    endloop
  endfacet
  facet normal 0 0 -1
    outer loop
      vertex -1.6168 0.525329 -2.01
      vertex -4.56773 2.03368 -2.01
      vertex -4.33013 2.5 -2.01
    endloop
  endfacet
  facet normal -0 0 -1
    outer loop
      vertex -1.6168 -0.525329 -2.01
      vertex -4.89074 -1.03956 -2.01
      vertex -1.7 0 -2.01
    endloop
  endfacet
  facet normal 0 0 -1
    outer loop
      vertex -1.6168 0.525329 -2.01
      vertex -4.75528 1.54508 -2.01
      vertex -4.56773 2.03368 -2.01
    endloop
  endfacet
  facet normal 0 0 -1
    outer loop
      vertex -4.97261 -0.522642 -2.01
      vertex -1.7 0 -2.01
      vertex -4.89074 -1.03956 -2.01
    endloop
  endfacet
  facet normal 0 0 -1
    outer loop
      vertex -1.6168 0.525329 -2.01
      vertex -4.89074 1.03956 -2.01
      vertex -4.75528 1.54508 -2.01
    endloop
  endfacet
  facet normal 0 0 -1
    outer loop
      vertex -5 0 -2.01
      vertex -1.7 0 -2.01
      vertex -4.97261 -0.522642 -2.01
    endloop
  endfacet
  facet normal 0 0 -1
    outer loop
      vertex -1.7 0 -2.01
      vertex -4.97261 0.522642 -2.01
      vertex -4.89074 1.03956 -2.01
    endloop
  endfacet
  facet normal 0 0 -1
    outer loop
      vertex -1.7 0 -2.01
      vertex -5 0 -2.01
      vertex -4.97261 0.522642 -2.01
    endloop
  endfacet
  facet normal -0.838666 -0.544646 0
    outer loop
      vertex -4.04508 -2.93893 -2.01
      vertex -4.33013 -2.5 0
      vertex -4.33013 -2.5 -2.01
    endloop
  endfacet
  facet normal -0.838666 -0.544646 0
    outer loop
      vertex -4.33013 -2.5 0
      vertex -4.04508 -2.93893 -2.01
      vertex -4.04508 -2.93893 0
    endloop
  endfacet
  facet normal 0.453988 -0.891008 0
    outer loop
      vertex 2.03368 -4.56773 -2.01
      vertex 2.5 -4.33013 0
      vertex 2.03368 -4.56773 0
    endloop
  endfacet
  facet normal 0.453988 -0.891008 0
    outer loop
      vertex 2.5 -4.33013 0
      vertex 2.03368 -4.56773 -2.01
      vertex 2.5 -4.33013 -2.01
    endloop
  endfacet
  facet normal 0.891008 0.453988 0
    outer loop
      vertex 4.56773 2.03368 0
      vertex 4.33013 2.5 -2.01
      vertex 4.33013 2.5 0
    endloop
  endfacet
  facet normal 0.891008 0.453988 0
    outer loop
      vertex 4.33013 2.5 -2.01
      vertex 4.56773 2.03368 0
      vertex 4.56773 2.03368 -2.01
    endloop
  endfacet
  facet normal -0.629326 0.777142 0
    outer loop
      vertex -2.93893 4.04508 -2.01
      vertex -3.34565 3.71572 0
      vertex -2.93893 4.04508 0
    endloop
  endfacet
  facet normal -0.629326 0.777142 0
    outer loop
      vertex -3.34565 3.71572 0
      vertex -2.93893 4.04508 -2.01
      vertex -3.34565 3.71572 -2.01
    endloop
  endfacet
  facet normal 0.453988 0.891008 -0
    outer loop
      vertex 2.5 4.33013 -2.01
      vertex 2.03368 4.56773 0
      vertex 2.5 4.33013 0
    endloop
  endfacet
  facet normal 0.453988 0.891008 0
    outer loop
      vertex 2.03368 4.56773 0
      vertex 2.5 4.33013 -2.01
      vertex 2.03368 4.56773 -2.01
    endloop
  endfacet
  facet normal 0.25883 -0.965923 0
    outer loop
      vertex 1.03956 -4.89074 -2.01
      vertex 1.54508 -4.75528 0
      vertex 1.03956 -4.89074 0
    endloop
  endfacet
  facet normal 0.25883 -0.965923 0
    outer loop
      vertex 1.54508 -4.75528 0
      vertex 1.03956 -4.89074 -2.01
      vertex 1.54508 -4.75528 -2.01
    endloop
  endfacet
  facet normal 0.777142 0.629326 0
    outer loop
      vertex 4.04508 2.93893 0
      vertex 3.71572 3.34565 -2.01
      vertex 3.71572 3.34565 0
    endloop
  endfacet
  facet normal 0.777142 0.629326 0
    outer loop
      vertex 3.71572 3.34565 -2.01
      vertex 4.04508 2.93893 0
      vertex 4.04508 2.93893 -2.01
    endloop
  endfacet
  facet normal 0.777142 -0.629326 0
    outer loop
      vertex 3.71572 -3.34565 0
      vertex 4.04508 -2.93893 -2.01
      vertex 4.04508 -2.93893 0
    endloop
  endfacet
  facet normal 0.777142 -0.629326 0
    outer loop
      vertex 4.04508 -2.93893 -2.01
      vertex 3.71572 -3.34565 0
      vertex 3.71572 -3.34565 -2.01
    endloop
  endfacet
  facet normal 0.544646 -0.838666 0
    outer loop
      vertex 2.5 -4.33013 -2.01
      vertex 2.93893 -4.04508 0
      vertex 2.5 -4.33013 0
    endloop
  endfacet
  facet normal 0.544646 -0.838666 0
    outer loop
      vertex 2.93893 -4.04508 0
      vertex 2.5 -4.33013 -2.01
      vertex 2.93893 -4.04508 -2.01
    endloop
  endfacet
  facet normal -0.156431 -0.987689 0
    outer loop
      vertex -1.03956 -4.89074 -2.01
      vertex -0.522642 -4.97261 0
      vertex -1.03956 -4.89074 0
    endloop
  endfacet
  facet normal -0.156431 -0.987689 -0
    outer loop
      vertex -0.522642 -4.97261 0
      vertex -1.03956 -4.89074 -2.01
      vertex -0.522642 -4.97261 -2.01
    endloop
  endfacet
  facet normal 0.933584 -0.358358 0
    outer loop
      vertex 4.56773 -2.03368 0
      vertex 4.75528 -1.54508 -2.01
      vertex 4.75528 -1.54508 0
    endloop
  endfacet
  facet normal 0.933584 -0.358358 0
    outer loop
      vertex 4.75528 -1.54508 -2.01
      vertex 4.56773 -2.03368 0
      vertex 4.56773 -2.03368 -2.01
    endloop
  endfacet
  facet normal 0.052335 -0.99863 0
    outer loop
      vertex 0 -5 -2.01
      vertex 0.522642 -4.97261 0
      vertex 0 -5 0
    endloop
  endfacet
  facet normal 0.052335 -0.99863 0
    outer loop
      vertex 0.522642 -4.97261 0
      vertex 0 -5 -2.01
      vertex 0.522642 -4.97261 -2.01
    endloop
  endfacet
  facet normal -0.987689 -0.156431 0
    outer loop
      vertex -4.89074 -1.03956 -2.01
      vertex -4.97261 -0.522642 0
      vertex -4.97261 -0.522642 -2.01
    endloop
  endfacet
  facet normal -0.987689 -0.156431 0
    outer loop
      vertex -4.97261 -0.522642 0
      vertex -4.89074 -1.03956 -2.01
      vertex -4.89074 -1.03956 0
    endloop
  endfacet
  facet normal 0.891008 -0.453988 0
    outer loop
      vertex 4.33013 -2.5 0
      vertex 4.56773 -2.03368 -2.01
      vertex 4.56773 -2.03368 0
    endloop
  endfacet
  facet normal 0.891008 -0.453988 0
    outer loop
      vertex 4.56773 -2.03368 -2.01
      vertex 4.33013 -2.5 0
      vertex 4.33013 -2.5 -2.01
    endloop
  endfacet
  facet normal -0.453988 -0.891008 0
    outer loop
      vertex -2.5 -4.33013 -2.01
      vertex -2.03368 -4.56773 0
      vertex -2.5 -4.33013 0
    endloop
  endfacet
  facet normal -0.453988 -0.891008 -0
    outer loop
      vertex -2.03368 -4.56773 0
      vertex -2.5 -4.33013 -2.01
      vertex -2.03368 -4.56773 -2.01
    endloop
  endfacet
  facet normal 0.629326 0.777142 -0
    outer loop
      vertex 3.34565 3.71572 -2.01
      vertex 2.93893 4.04508 0
      vertex 3.34565 3.71572 0
    endloop
  endfacet
  facet normal 0.629326 0.777142 0
    outer loop
      vertex 2.93893 4.04508 0
      vertex 3.34565 3.71572 -2.01
      vertex 2.93893 4.04508 -2.01
    endloop
  endfacet
  facet normal -0.777142 -0.629326 0
    outer loop
      vertex -3.71572 -3.34565 -2.01
      vertex -4.04508 -2.93893 0
      vertex -4.04508 -2.93893 -2.01
    endloop
  endfacet
  facet normal -0.777142 -0.629326 0
    outer loop
      vertex -4.04508 -2.93893 0
      vertex -3.71572 -3.34565 -2.01
      vertex -3.71572 -3.34565 0
    endloop
  endfacet
  facet normal -0.933584 0.358358 0
    outer loop
      vertex -4.75528 1.54508 -2.01
      vertex -4.56773 2.03368 0
      vertex -4.56773 2.03368 -2.01
    endloop
  endfacet
  facet normal -0.933584 0.358358 0
    outer loop
      vertex -4.56773 2.03368 0
      vertex -4.75528 1.54508 -2.01
      vertex -4.75528 1.54508 0
    endloop
  endfacet
  facet normal -0.965923 -0.25883 0
    outer loop
      vertex -4.75528 -1.54508 -2.01
      vertex -4.89074 -1.03956 0
      vertex -4.89074 -1.03956 -2.01
    endloop
  endfacet
  facet normal -0.965923 -0.25883 0
    outer loop
      vertex -4.89074 -1.03956 0
      vertex -4.75528 -1.54508 -2.01
      vertex -4.75528 -1.54508 0
    endloop
  endfacet
  facet normal -0.891008 0.453988 0
    outer loop
      vertex -4.56773 2.03368 -2.01
      vertex -4.33013 2.5 0
      vertex -4.33013 2.5 -2.01
    endloop
  endfacet
  facet normal -0.891008 0.453988 0
    outer loop
      vertex -4.33013 2.5 0
      vertex -4.56773 2.03368 -2.01
      vertex -4.56773 2.03368 0
    endloop
  endfacet
  facet normal 0.25883 0.965923 -0
    outer loop
      vertex 1.54508 4.75528 -2.01
      vertex 1.03956 4.89074 0
      vertex 1.54508 4.75528 0
    endloop
  endfacet
  facet normal 0.25883 0.965923 0
    outer loop
      vertex 1.03956 4.89074 0
      vertex 1.54508 4.75528 -2.01
      vertex 1.03956 4.89074 -2.01
    endloop
  endfacet
  facet normal -0.25883 0.965923 0
    outer loop
      vertex -1.03956 4.89074 -2.01
      vertex -1.54508 4.75528 0
      vertex -1.03956 4.89074 0
    endloop
  endfacet
  facet normal -0.25883 0.965923 0
    outer loop
      vertex -1.54508 4.75528 0
      vertex -1.03956 4.89074 -2.01
      vertex -1.54508 4.75528 -2.01
    endloop
  endfacet
  facet normal -0.453988 0.891008 0
    outer loop
      vertex -2.03368 4.56773 -2.01
      vertex -2.5 4.33013 0
      vertex -2.03368 4.56773 0
    endloop
  endfacet
  facet normal -0.453988 0.891008 0
    outer loop
      vertex -2.5 4.33013 0
      vertex -2.03368 4.56773 -2.01
      vertex -2.5 4.33013 -2.01
    endloop
  endfacet
  facet normal -0.99863 0.052335 0
    outer loop
      vertex -5 0 -2.01
      vertex -4.97261 0.522642 0
      vertex -4.97261 0.522642 -2.01
    endloop
  endfacet
  facet normal -0.99863 0.052335 0
    outer loop
      vertex -4.97261 0.522642 0
      vertex -5 0 -2.01
      vertex -5 0 0
    endloop
  endfacet
  facet normal -0.358358 -0.933584 0
    outer loop
      vertex -2.03368 -4.56773 -2.01
      vertex -1.54508 -4.75528 0
      vertex -2.03368 -4.56773 0
    endloop
  endfacet
  facet normal -0.358358 -0.933584 -0
    outer loop
      vertex -1.54508 -4.75528 0
      vertex -2.03368 -4.56773 -2.01
      vertex -1.54508 -4.75528 -2.01
    endloop
  endfacet
  facet normal -0.777142 0.629326 0
    outer loop
      vertex -4.04508 2.93893 -2.01
      vertex -3.71572 3.34565 0
      vertex -3.71572 3.34565 -2.01
    endloop
  endfacet
  facet normal -0.777142 0.629326 0
    outer loop
      vertex -3.71572 3.34565 0
      vertex -4.04508 2.93893 -2.01
      vertex -4.04508 2.93893 0
    endloop
  endfacet
  facet normal -0.707107 0.707107 0
    outer loop
      vertex -3.71572 3.34565 -2.01
      vertex -3.34565 3.71572 0
      vertex -3.34565 3.71572 -2.01
    endloop
  endfacet
  facet normal -0.707107 0.707107 0
    outer loop
      vertex -3.34565 3.71572 0
      vertex -3.71572 3.34565 -2.01
      vertex -3.71572 3.34565 0
    endloop
  endfacet
  facet normal 0.544646 0.838666 -0
    outer loop
      vertex 2.93893 4.04508 -2.01
      vertex 2.5 4.33013 0
      vertex 2.93893 4.04508 0
    endloop
  endfacet
  facet normal 0.544646 0.838666 0
    outer loop
      vertex 2.5 4.33013 0
      vertex 2.93893 4.04508 -2.01
      vertex 2.5 4.33013 -2.01
    endloop
  endfacet
  facet normal -0.052335 0.99863 0
    outer loop
      vertex 0 5 -2.01
      vertex -0.522642 4.97261 0
      vertex 0 5 0
    endloop
  endfacet
  facet normal -0.052335 0.99863 0
    outer loop
      vertex -0.522642 4.97261 0
      vertex 0 5 -2.01
      vertex -0.522642 4.97261 -2.01
    endloop
  endfacet
  facet normal -0.99863 -0.052335 0
    outer loop
      vertex -4.97261 -0.522642 -2.01
      vertex -5 0 0
      vertex -5 0 -2.01
    endloop
  endfacet
  facet normal -0.99863 -0.052335 0
    outer loop
      vertex -5 0 0
      vertex -4.97261 -0.522642 -2.01
      vertex -4.97261 -0.522642 0
    endloop
  endfacet
  facet normal -0.358358 0.933584 0
    outer loop
      vertex -1.54508 4.75528 -2.01
      vertex -2.03368 4.56773 0
      vertex -1.54508 4.75528 0
    endloop
  endfacet
  facet normal -0.358358 0.933584 0
    outer loop
      vertex -2.03368 4.56773 0
      vertex -1.54508 4.75528 -2.01
      vertex -2.03368 4.56773 -2.01
    endloop
  endfacet
  facet normal -0.156431 0.987689 0
    outer loop
      vertex -0.522642 4.97261 -2.01
      vertex -1.03956 4.89074 0
      vertex -0.522642 4.97261 0
    endloop
  endfacet
  facet normal -0.156431 0.987689 0
    outer loop
      vertex -1.03956 4.89074 0
      vertex -0.522642 4.97261 -2.01
      vertex -1.03956 4.89074 -2.01
    endloop
  endfacet
  facet normal -0.544646 0.838666 0
    outer loop
      vertex -2.5 4.33013 -2.01
      vertex -2.93893 4.04508 0
      vertex -2.5 4.33013 0
    endloop
  endfacet
  facet normal -0.544646 0.838666 0
    outer loop
      vertex -2.93893 4.04508 0
      vertex -2.5 4.33013 -2.01
      vertex -2.93893 4.04508 -2.01
    endloop
  endfacet
  facet normal 0.707107 0.707107 0
    outer loop
      vertex 3.71572 3.34565 0
      vertex 3.34565 3.71572 -2.01
      vertex 3.34565 3.71572 0
    endloop
  endfacet
  facet normal 0.707107 0.707107 0
    outer loop
      vertex 3.34565 3.71572 -2.01
      vertex 3.71572 3.34565 0
      vertex 3.71572 3.34565 -2.01
    endloop
  endfacet
  facet normal -0.99863 0.0523302 0
    outer loop
      vertex 3.97809 -0.418114 -0.5
      vertex 4 0 0
      vertex 4 0 -0.5
    endloop
  endfacet
  facet normal -0.99863 0.0523302 0
    outer loop
      vertex 4 0 0
      vertex 3.97809 -0.418114 -0.5
      vertex 3.97809 -0.418114 0
    endloop
  endfacet
  facet normal 0.629324 -0.777143 0
    outer loop
      vertex -2.67652 2.97258 -0.5
      vertex -2.35114 3.23607 0
      vertex -2.67652 2.97258 0
    endloop
  endfacet
  facet normal 0.629324 -0.777143 0
    outer loop
      vertex -2.35114 3.23607 0
      vertex -2.67652 2.97258 -0.5
      vertex -2.35114 3.23607 -0.5
    endloop
  endfacet
  facet normal 0.258808 0.965929 -0
    outer loop
      vertex -0.831646 -3.91259 -0.5
      vertex -1.23607 -3.80423 0
      vertex -0.831646 -3.91259 0
    endloop
  endfacet
  facet normal 0.258808 0.965929 0
    outer loop
      vertex -1.23607 -3.80423 0
      vertex -0.831646 -3.91259 -0.5
      vertex -1.23607 -3.80423 -0.5
    endloop
  endfacet
  facet normal -0.453993 0.891005 0
    outer loop
      vertex 2 -3.4641 -0.5
      vertex 1.62695 -3.65418 0
      vertex 2 -3.4641 0
    endloop
  endfacet
  facet normal -0.453993 0.891005 0
    outer loop
      vertex 1.62695 -3.65418 0
      vertex 2 -3.4641 -0.5
      vertex 1.62695 -3.65418 -0.5
    endloop
  endfacet
  facet normal 0.544634 0.838674 -0
    outer loop
      vertex -2 -3.4641 -0.5
      vertex -2.35114 -3.23607 0
      vertex -2 -3.4641 0
    endloop
  endfacet
  facet normal 0.544634 0.838674 0
    outer loop
      vertex -2.35114 -3.23607 0
      vertex -2 -3.4641 -0.5
      vertex -2.35114 -3.23607 -0.5
    endloop
  endfacet
  facet normal -0.987687 0.156441 0
    outer loop
      vertex 3.91259 -0.831646 -0.5
      vertex 3.97809 -0.418114 0
      vertex 3.97809 -0.418114 -0.5
    endloop
  endfacet
  facet normal -0.987687 0.156441 0
    outer loop
      vertex 3.97809 -0.418114 0
      vertex 3.91259 -0.831646 -0.5
      vertex 3.91259 -0.831646 0
    endloop
  endfacet
  facet normal 0.0523302 -0.99863 0
    outer loop
      vertex -0.418114 3.97809 -0.5
      vertex 0 4 0
      vertex -0.418114 3.97809 0
    endloop
  endfacet
  facet normal 0.0523302 -0.99863 0
    outer loop
      vertex 0 4 0
      vertex -0.418114 3.97809 -0.5
      vertex 0 4 -0.5
    endloop
  endfacet
  facet normal -0.156441 0.987687 0
    outer loop
      vertex 0.831646 -3.91259 -0.5
      vertex 0.418114 -3.97809 0
      vertex 0.831646 -3.91259 0
    endloop
  endfacet
  facet normal -0.156441 0.987687 0
    outer loop
      vertex 0.418114 -3.97809 0
      vertex 0.831646 -3.91259 -0.5
      vertex 0.418114 -3.97809 -0.5
    endloop
  endfacet
  facet normal 0.453993 -0.891005 0
    outer loop
      vertex -2 3.4641 -0.5
      vertex -1.62695 3.65418 0
      vertex -2 3.4641 0
    endloop
  endfacet
  facet normal 0.453993 -0.891005 0
    outer loop
      vertex -1.62695 3.65418 0
      vertex -2 3.4641 -0.5
      vertex -1.62695 3.65418 -0.5
    endloop
  endfacet
  facet normal 0.987687 0.156441 0
    outer loop
      vertex -3.91259 -0.831646 0
      vertex -3.97809 -0.418114 -0.5
      vertex -3.97809 -0.418114 0
    endloop
  endfacet
  facet normal 0.987687 0.156441 0
    outer loop
      vertex -3.97809 -0.418114 -0.5
      vertex -3.91259 -0.831646 0
      vertex -3.91259 -0.831646 -0.5
    endloop
  endfacet
  facet normal -0.933576 0.358379 0
    outer loop
      vertex 3.65418 -1.62695 -0.5
      vertex 3.80423 -1.23607 0
      vertex 3.80423 -1.23607 -0.5
    endloop
  endfacet
  facet normal -0.933576 0.358379 0
    outer loop
      vertex 3.80423 -1.23607 0
      vertex 3.65418 -1.62695 -0.5
      vertex 3.65418 -1.62695 0
    endloop
  endfacet
  facet normal -0.891005 0.453993 0
    outer loop
      vertex 3.4641 -2 -0.5
      vertex 3.65418 -1.62695 0
      vertex 3.65418 -1.62695 -0.5
    endloop
  endfacet
  facet normal -0.891005 0.453993 0
    outer loop
      vertex 3.65418 -1.62695 0
      vertex 3.4641 -2 -0.5
      vertex 3.4641 -2 0
    endloop
  endfacet
  facet normal 0.987687 -0.156441 0
    outer loop
      vertex -3.97809 0.418114 0
      vertex -3.91259 0.831646 -0.5
      vertex -3.91259 0.831646 0
    endloop
  endfacet
  facet normal 0.987687 -0.156441 0
    outer loop
      vertex -3.91259 0.831646 -0.5
      vertex -3.97809 0.418114 0
      vertex -3.97809 0.418114 -0.5
    endloop
  endfacet
  facet normal 0.453993 0.891005 -0
    outer loop
      vertex -1.62695 -3.65418 -0.5
      vertex -2 -3.4641 0
      vertex -1.62695 -3.65418 0
    endloop
  endfacet
  facet normal 0.453993 0.891005 0
    outer loop
      vertex -2 -3.4641 0
      vertex -1.62695 -3.65418 -0.5
      vertex -2 -3.4641 -0.5
    endloop
  endfacet
  facet normal 0.99863 0.0523302 0
    outer loop
      vertex -3.97809 -0.418114 0
      vertex -4 0 -0.5
      vertex -4 0 0
    endloop
  endfacet
  facet normal 0.99863 0.0523302 0
    outer loop
      vertex -4 0 -0.5
      vertex -3.97809 -0.418114 0
      vertex -3.97809 -0.418114 -0.5
    endloop
  endfacet
  facet normal 0.99863 -0.0523302 0
    outer loop
      vertex -4 0 0
      vertex -3.97809 0.418114 -0.5
      vertex -3.97809 0.418114 0
    endloop
  endfacet
  facet normal 0.99863 -0.0523302 0
    outer loop
      vertex -3.97809 0.418114 -0.5
      vertex -4 0 0
      vertex -4 0 -0.5
    endloop
  endfacet
  facet normal -0.965929 0.258808 0
    outer loop
      vertex 3.80423 -1.23607 -0.5
      vertex 3.91259 -0.831646 0
      vertex 3.91259 -0.831646 -0.5
    endloop
  endfacet
  facet normal -0.965929 0.258808 0
    outer loop
      vertex 3.91259 -0.831646 0
      vertex 3.80423 -1.23607 -0.5
      vertex 3.80423 -1.23607 0
    endloop
  endfacet
  facet normal -0.453993 -0.891005 0
    outer loop
      vertex 1.62695 3.65418 -0.5
      vertex 2 3.4641 0
      vertex 1.62695 3.65418 0
    endloop
  endfacet
  facet normal -0.453993 -0.891005 -0
    outer loop
      vertex 2 3.4641 0
      vertex 1.62695 3.65418 -0.5
      vertex 2 3.4641 -0.5
    endloop
  endfacet
  facet normal -0.629324 0.777143 0
    outer loop
      vertex 2.67652 -2.97258 -0.5
      vertex 2.35114 -3.23607 0
      vertex 2.67652 -2.97258 0
    endloop
  endfacet
  facet normal -0.629324 0.777143 0
    outer loop
      vertex 2.35114 -3.23607 0
      vertex 2.67652 -2.97258 -0.5
      vertex 2.35114 -3.23607 -0.5
    endloop
  endfacet
  facet normal 0.629324 0.777143 -0
    outer loop
      vertex -2.35114 -3.23607 -0.5
      vertex -2.67652 -2.97258 0
      vertex -2.35114 -3.23607 0
    endloop
  endfacet
  facet normal 0.629324 0.777143 0
    outer loop
      vertex -2.67652 -2.97258 0
      vertex -2.35114 -3.23607 -0.5
      vertex -2.67652 -2.97258 -0.5
    endloop
  endfacet
  facet normal -0.987687 -0.156441 0
    outer loop
      vertex 3.97809 0.418114 -0.5
      vertex 3.91259 0.831646 0
      vertex 3.91259 0.831646 -0.5
    endloop
  endfacet
  facet normal -0.987687 -0.156441 0
    outer loop
      vertex 3.91259 0.831646 0
      vertex 3.97809 0.418114 -0.5
      vertex 3.97809 0.418114 0
    endloop
  endfacet
  facet normal -0.965929 -0.258808 0
    outer loop
      vertex 3.91259 0.831646 -0.5
      vertex 3.80423 1.23607 0
      vertex 3.80423 1.23607 -0.5
    endloop
  endfacet
  facet normal -0.965929 -0.258808 0
    outer loop
      vertex 3.80423 1.23607 0
      vertex 3.91259 0.831646 -0.5
      vertex 3.91259 0.831646 0
    endloop
  endfacet
  facet normal 0.891005 0.453993 0
    outer loop
      vertex -3.4641 -2 0
      vertex -3.65418 -1.62695 -0.5
      vertex -3.65418 -1.62695 0
    endloop
  endfacet
  facet normal 0.891005 0.453993 0
    outer loop
      vertex -3.65418 -1.62695 -0.5
      vertex -3.4641 -2 0
      vertex -3.4641 -2 -0.5
    endloop
  endfacet
  facet normal 0.707107 0.707107 0
    outer loop
      vertex -2.67652 -2.97258 0
      vertex -2.97258 -2.67652 -0.5
      vertex -2.97258 -2.67652 0
    endloop
  endfacet
  facet normal 0.707107 0.707107 0
    outer loop
      vertex -2.97258 -2.67652 -0.5
      vertex -2.67652 -2.97258 0
      vertex -2.67652 -2.97258 -0.5
    endloop
  endfacet
  facet normal 0.258808 -0.965929 0
    outer loop
      vertex -1.23607 3.80423 -0.5
      vertex -0.831646 3.91259 0
      vertex -1.23607 3.80423 0
    endloop
  endfacet
  facet normal 0.258808 -0.965929 0
    outer loop
      vertex -0.831646 3.91259 0
      vertex -1.23607 3.80423 -0.5
      vertex -0.831646 3.91259 -0.5
    endloop
  endfacet
  facet normal -0.544634 0.838674 0
    outer loop
      vertex 2.35114 -3.23607 -0.5
      vertex 2 -3.4641 0
      vertex 2.35114 -3.23607 0
    endloop
  endfacet
  facet normal -0.544634 0.838674 0
    outer loop
      vertex 2 -3.4641 0
      vertex 2.35114 -3.23607 -0.5
      vertex 2 -3.4641 -0.5
    endloop
  endfacet
  facet normal 0.933576 -0.358379 0
    outer loop
      vertex -3.80423 1.23607 0
      vertex -3.65418 1.62695 -0.5
      vertex -3.65418 1.62695 0
    endloop
  endfacet
  facet normal 0.933576 -0.358379 0
    outer loop
      vertex -3.65418 1.62695 -0.5
      vertex -3.80423 1.23607 0
      vertex -3.80423 1.23607 -0.5
    endloop
  endfacet
  facet normal -0.544634 -0.838674 0
    outer loop
      vertex 2 3.4641 -0.5
      vertex 2.35114 3.23607 0
      vertex 2 3.4641 0
    endloop
  endfacet
  facet normal -0.544634 -0.838674 -0
    outer loop
      vertex 2.35114 3.23607 0
      vertex 2 3.4641 -0.5
      vertex 2.35114 3.23607 -0.5
    endloop
  endfacet
  facet normal -0.777143 0.629324 0
    outer loop
      vertex 2.97258 -2.67652 -0.5
      vertex 3.23607 -2.35114 0
      vertex 3.23607 -2.35114 -0.5
    endloop
  endfacet
  facet normal -0.777143 0.629324 0
    outer loop
      vertex 3.23607 -2.35114 0
      vertex 2.97258 -2.67652 -0.5
      vertex 2.97258 -2.67652 0
    endloop
  endfacet
  facet normal -0.156441 -0.987687 0
    outer loop
      vertex 0.418114 3.97809 -0.5
      vertex 0.831646 3.91259 0
      vertex 0.418114 3.97809 0
    endloop
  endfacet
  facet normal -0.156441 -0.987687 -0
    outer loop
      vertex 0.831646 3.91259 0
      vertex 0.418114 3.97809 -0.5
      vertex 0.831646 3.91259 -0.5
    endloop
  endfacet
  facet normal 0.358379 0.933576 -0
    outer loop
      vertex -1.23607 -3.80423 -0.5
      vertex -1.62695 -3.65418 0
      vertex -1.23607 -3.80423 0
    endloop
  endfacet
  facet normal 0.358379 0.933576 0
    outer loop
      vertex -1.62695 -3.65418 0
      vertex -1.23607 -3.80423 -0.5
      vertex -1.62695 -3.65418 -0.5
    endloop
  endfacet
  facet normal -0.838674 -0.544634 0
    outer loop
      vertex 3.4641 2 -0.5
      vertex 3.23607 2.35114 0
      vertex 3.23607 2.35114 -0.5
    endloop
  endfacet
  facet normal -0.838674 -0.544634 0
    outer loop
      vertex 3.23607 2.35114 0
      vertex 3.4641 2 -0.5
      vertex 3.4641 2 0
    endloop
  endfacet
  facet normal 0.544634 -0.838674 0
    outer loop
      vertex -2.35114 3.23607 -0.5
      vertex -2 3.4641 0
      vertex -2.35114 3.23607 0
    endloop
  endfacet
  facet normal 0.544634 -0.838674 0
    outer loop
      vertex -2 3.4641 0
      vertex -2.35114 3.23607 -0.5
      vertex -2 3.4641 -0.5
    endloop
  endfacet
  facet normal -0.777143 -0.629324 0
    outer loop
      vertex 3.23607 2.35114 -0.5
      vertex 2.97258 2.67652 0
      vertex 2.97258 2.67652 -0.5
    endloop
  endfacet
  facet normal -0.777143 -0.629324 0
    outer loop
      vertex 2.97258 2.67652 0
      vertex 3.23607 2.35114 -0.5
      vertex 3.23607 2.35114 0
    endloop
  endfacet
  facet normal 0.0523302 0.99863 -0
    outer loop
      vertex 0 -4 -0.5
      vertex -0.418114 -3.97809 0
      vertex 0 -4 0
    endloop
  endfacet
  facet normal 0.0523302 0.99863 0
    outer loop
      vertex -0.418114 -3.97809 0
      vertex 0 -4 -0.5
      vertex -0.418114 -3.97809 -0.5
    endloop
  endfacet
  facet normal -0.629324 -0.777143 0
    outer loop
      vertex 2.35114 3.23607 -0.5
      vertex 2.67652 2.97258 0
      vertex 2.35114 3.23607 0
    endloop
  endfacet
  facet normal -0.629324 -0.777143 -0
    outer loop
      vertex 2.67652 2.97258 0
      vertex 2.35114 3.23607 -0.5
      vertex 2.67652 2.97258 -0.5
    endloop
  endfacet
  facet normal -0.358379 0.933576 0
    outer loop
      vertex 1.62695 -3.65418 -0.5
      vertex 1.23607 -3.80423 0
      vertex 1.62695 -3.65418 0
    endloop
  endfacet
  facet normal -0.358379 0.933576 0
    outer loop
      vertex 1.23607 -3.80423 0
      vertex 1.62695 -3.65418 -0.5
      vertex 1.23607 -3.80423 -0.5
    endloop
  endfacet
  facet normal -0.707107 -0.707107 0
    outer loop
      vertex 2.97258 2.67652 -0.5
      vertex 2.67652 2.97258 0
      vertex 2.67652 2.97258 -0.5
    endloop
  endfacet
  facet normal -0.707107 -0.707107 0
    outer loop
      vertex 2.67652 2.97258 0
      vertex 2.97258 2.67652 -0.5
      vertex 2.97258 2.67652 0
    endloop
  endfacet
  facet normal 0.777143 -0.629324 0
    outer loop
      vertex -3.23607 2.35114 0
      vertex -2.97258 2.67652 -0.5
      vertex -2.97258 2.67652 0
    endloop
  endfacet
  facet normal 0.777143 -0.629324 0
    outer loop
      vertex -2.97258 2.67652 -0.5
      vertex -3.23607 2.35114 0
      vertex -3.23607 2.35114 -0.5
    endloop
  endfacet
  facet normal -0.258808 0.965929 0
    outer loop
      vertex 1.23607 -3.80423 -0.5
      vertex 0.831646 -3.91259 0
      vertex 1.23607 -3.80423 0
    endloop
  endfacet
  facet normal -0.258808 0.965929 0
    outer loop
      vertex 0.831646 -3.91259 0
      vertex 1.23607 -3.80423 -0.5
      vertex 0.831646 -3.91259 -0.5
    endloop
  endfacet
  facet normal -0.0523302 0.99863 0
    outer loop
      vertex 0.418114 -3.97809 -0.5
      vertex 0 -4 0
      vertex 0.418114 -3.97809 0
    endloop
  endfacet
  facet normal -0.0523302 0.99863 0
    outer loop
      vertex 0 -4 0
      vertex 0.418114 -3.97809 -0.5
      vertex 0 -4 -0.5
    endloop
  endfacet
  facet normal -0.99863 -0.0523302 0
    outer loop
      vertex 4 0 -0.5
      vertex 3.97809 0.418114 0
      vertex 3.97809 0.418114 -0.5
    endloop
  endfacet
  facet normal -0.99863 -0.0523302 0
    outer loop
      vertex 3.97809 0.418114 0
      vertex 4 0 -0.5
      vertex 4 0 0
    endloop
  endfacet
  facet normal -0.838674 0.544634 0
    outer loop
      vertex 3.23607 -2.35114 -0.5
      vertex 3.4641 -2 0
      vertex 3.4641 -2 -0.5
    endloop
  endfacet
  facet normal -0.838674 0.544634 0
    outer loop
      vertex 3.4641 -2 0
      vertex 3.23607 -2.35114 -0.5
      vertex 3.23607 -2.35114 0
    endloop
  endfacet
  facet normal 0.358379 -0.933576 0
    outer loop
      vertex -1.62695 3.65418 -0.5
      vertex -1.23607 3.80423 0
      vertex -1.62695 3.65418 0
    endloop
  endfacet
  facet normal 0.358379 -0.933576 0
    outer loop
      vertex -1.23607 3.80423 0
      vertex -1.62695 3.65418 -0.5
      vertex -1.23607 3.80423 -0.5
    endloop
  endfacet
  facet normal -0.0523302 -0.99863 0
    outer loop
      vertex 0 4 -0.5
      vertex 0.418114 3.97809 0
      vertex 0 4 0
    endloop
  endfacet
  facet normal -0.0523302 -0.99863 -0
    outer loop
      vertex 0.418114 3.97809 0
      vertex 0 4 -0.5
      vertex 0.418114 3.97809 -0.5
    endloop
  endfacet
  facet normal 0.838674 0.544634 0
    outer loop
      vertex -3.23607 -2.35114 0
      vertex -3.4641 -2 -0.5
      vertex -3.4641 -2 0
    endloop
  endfacet
  facet normal 0.838674 0.544634 0
    outer loop
      vertex -3.4641 -2 -0.5
      vertex -3.23607 -2.35114 0
      vertex -3.23607 -2.35114 -0.5
    endloop
  endfacet
  facet normal 0.933576 0.358379 0
    outer loop
      vertex -3.65418 -1.62695 0
      vertex -3.80423 -1.23607 -0.5
      vertex -3.80423 -1.23607 0
    endloop
  endfacet
  facet normal 0.933576 0.358379 0
    outer loop
      vertex -3.80423 -1.23607 -0.5
      vertex -3.65418 -1.62695 0
      vertex -3.65418 -1.62695 -0.5
    endloop
  endfacet
  facet normal 0.156441 -0.987687 0
    outer loop
      vertex -0.831646 3.91259 -0.5
      vertex -0.418114 3.97809 0
      vertex -0.831646 3.91259 0
    endloop
  endfacet
  facet normal 0.156441 -0.987687 0
    outer loop
      vertex -0.418114 3.97809 0
      vertex -0.831646 3.91259 -0.5
      vertex -0.418114 3.97809 -0.5
    endloop
  endfacet
  facet normal 0.965929 0.258808 0
    outer loop
      vertex -3.80423 -1.23607 0
      vertex -3.91259 -0.831646 -0.5
      vertex -3.91259 -0.831646 0
    endloop
  endfacet
  facet normal 0.965929 0.258808 0
    outer loop
      vertex -3.91259 -0.831646 -0.5
      vertex -3.80423 -1.23607 0
      vertex -3.80423 -1.23607 -0.5
    endloop
  endfacet
  facet normal -0.707107 0.707107 0
    outer loop
      vertex 2.67652 -2.97258 -0.5
      vertex 2.97258 -2.67652 0
      vertex 2.97258 -2.67652 -0.5
    endloop
  endfacet
  facet normal -0.707107 0.707107 0
    outer loop
      vertex 2.97258 -2.67652 0
      vertex 2.67652 -2.97258 -0.5
      vertex 2.67652 -2.97258 0
    endloop
  endfacet
  facet normal 0.156441 0.987687 -0
    outer loop
      vertex -0.418114 -3.97809 -0.5
      vertex -0.831646 -3.91259 0
      vertex -0.418114 -3.97809 0
    endloop
  endfacet
  facet normal 0.156441 0.987687 0
    outer loop
      vertex -0.831646 -3.91259 0
      vertex -0.418114 -3.97809 -0.5
      vertex -0.831646 -3.91259 -0.5
    endloop
  endfacet
  facet normal 0.965929 -0.258808 0
    outer loop
      vertex -3.91259 0.831646 0
      vertex -3.80423 1.23607 -0.5
      vertex -3.80423 1.23607 0
    endloop
  endfacet
  facet normal 0.965929 -0.258808 0
    outer loop
      vertex -3.80423 1.23607 -0.5
      vertex -3.91259 0.831646 0
      vertex -3.91259 0.831646 -0.5
    endloop
  endfacet
  facet normal 0.838674 -0.544634 0
    outer loop
      vertex -3.4641 2 0
      vertex -3.23607 2.35114 -0.5
      vertex -3.23607 2.35114 0
    endloop
  endfacet
  facet normal 0.838674 -0.544634 0
    outer loop
      vertex -3.23607 2.35114 -0.5
      vertex -3.4641 2 0
      vertex -3.4641 2 -0.5
    endloop
  endfacet
  facet normal -0.358379 -0.933576 0
    outer loop
      vertex 1.23607 3.80423 -0.5
      vertex 1.62695 3.65418 0
      vertex 1.23607 3.80423 0
    endloop
  endfacet
  facet normal -0.358379 -0.933576 -0
    outer loop
      vertex 1.62695 3.65418 0
      vertex 1.23607 3.80423 -0.5
      vertex 1.62695 3.65418 -0.5
    endloop
  endfacet
  facet normal 0.891005 -0.453993 0
    outer loop
      vertex -3.65418 1.62695 0
      vertex -3.4641 2 -0.5
      vertex -3.4641 2 0
    endloop
  endfacet
  facet normal 0.891005 -0.453993 0
    outer loop
      vertex -3.4641 2 -0.5
      vertex -3.65418 1.62695 0
      vertex -3.65418 1.62695 -0.5
    endloop
  endfacet
  facet normal -0.258808 -0.965929 0
    outer loop
      vertex 0.831646 3.91259 -0.5
      vertex 1.23607 3.80423 0
      vertex 0.831646 3.91259 0
    endloop
  endfacet
  facet normal -0.258808 -0.965929 -0
    outer loop
      vertex 1.23607 3.80423 0
      vertex 0.831646 3.91259 -0.5
      vertex 1.23607 3.80423 -0.5
    endloop
  endfacet
  facet normal -0.891005 -0.453993 0
    outer loop
      vertex 3.65418 1.62695 -0.5
      vertex 3.4641 2 0
      vertex 3.4641 2 -0.5
    endloop
  endfacet
  facet normal -0.891005 -0.453993 0
    outer loop
      vertex 3.4641 2 0
      vertex 3.65418 1.62695 -0.5
      vertex 3.65418 1.62695 0
    endloop
  endfacet
  facet normal -0.933576 -0.358379 0
    outer loop
      vertex 3.80423 1.23607 -0.5
      vertex 3.65418 1.62695 0
      vertex 3.65418 1.62695 -0.5
    endloop
  endfacet
  facet normal -0.933576 -0.358379 0
    outer loop
      vertex 3.65418 1.62695 0
      vertex 3.80423 1.23607 -0.5
      vertex 3.80423 1.23607 0
    endloop
  endfacet
  facet normal 0.777143 0.629324 0
    outer loop
      vertex -2.97258 -2.67652 0
      vertex -3.23607 -2.35114 -0.5
      vertex -3.23607 -2.35114 0
    endloop
  endfacet
  facet normal 0.777143 0.629324 0
    outer loop
      vertex -3.23607 -2.35114 -0.5
      vertex -2.97258 -2.67652 0
      vertex -2.97258 -2.67652 -0.5
    endloop
  endfacet
  facet normal 0 0 1
    outer loop
      vertex 1.7 0 -0.5
      vertex 4 0 -0.5
      vertex 3.97809 0.418114 -0.5
    endloop
  endfacet
  facet normal 0 0 1
    outer loop
      vertex 1.7 0 -0.5
      vertex 3.97809 0.418114 -0.5
      vertex 3.91259 0.831646 -0.5
    endloop
  endfacet
  facet normal 0 0 1
    outer loop
      vertex 4 0 -0.5
      vertex 1.7 0 -0.5
      vertex 3.97809 -0.418114 -0.5
    endloop
  endfacet
  facet normal 0 0 1
    outer loop
      vertex 1.6168 0.525329 -0.5
      vertex 3.91259 0.831646 -0.5
      vertex 3.80423 1.23607 -0.5
    endloop
  endfacet
  facet normal 0 0 1
    outer loop
      vertex 3.97809 -0.418114 -0.5
      vertex 1.7 0 -0.5
      vertex 3.91259 -0.831646 -0.5
    endloop
  endfacet
  facet normal 0 0 1
    outer loop
      vertex 1.6168 0.525329 -0.5
      vertex 3.80423 1.23607 -0.5
      vertex 3.65418 1.62695 -0.5
    endloop
  endfacet
  facet normal -0 0 1
    outer loop
      vertex 1.6168 -0.525329 -0.5
      vertex 3.91259 -0.831646 -0.5
      vertex 1.7 0 -0.5
    endloop
  endfacet
  facet normal 0 0 1
    outer loop
      vertex 1.6168 0.525329 -0.5
      vertex 3.65418 1.62695 -0.5
      vertex 3.4641 2 -0.5
    endloop
  endfacet
  facet normal 0 0 1
    outer loop
      vertex 3.91259 -0.831646 -0.5
      vertex 1.6168 -0.525329 -0.5
      vertex 3.80423 -1.23607 -0.5
    endloop
  endfacet
  facet normal 0 0 1
    outer loop
      vertex 1.37533 0.999234 -0.5
      vertex 3.4641 2 -0.5
      vertex 3.23607 2.35114 -0.5
    endloop
  endfacet
  facet normal 0 0 1
    outer loop
      vertex 3.80423 -1.23607 -0.5
      vertex 1.6168 -0.525329 -0.5
      vertex 3.65418 -1.62695 -0.5
    endloop
  endfacet
  facet normal 0 0 1
    outer loop
      vertex 1.37533 0.999234 -0.5
      vertex 3.23607 2.35114 -0.5
      vertex 2.97258 2.67652 -0.5
    endloop
  endfacet
  facet normal 0 0 1
    outer loop
      vertex 3.65418 -1.62695 -0.5
      vertex 1.6168 -0.525329 -0.5
      vertex 3.4641 -2 -0.5
    endloop
  endfacet
  facet normal 0 0 1
    outer loop
      vertex 1.37533 0.999234 -0.5
      vertex 2.97258 2.67652 -0.5
      vertex 2.67652 2.97258 -0.5
    endloop
  endfacet
  facet normal -0 0 1
    outer loop
      vertex 1.37533 -0.999234 -0.5
      vertex 3.4641 -2 -0.5
      vertex 1.6168 -0.525329 -0.5
    endloop
  endfacet
  facet normal 0 0 1
    outer loop
      vertex 0.999234 1.37533 -0.5
      vertex 2.67652 2.97258 -0.5
      vertex 2.35114 3.23607 -0.5
    endloop
  endfacet
  facet normal 0 0 1
    outer loop
      vertex 3.4641 -2 -0.5
      vertex 1.37533 -0.999234 -0.5
      vertex 3.23607 -2.35114 -0.5
    endloop
  endfacet
  facet normal 0 0 1
    outer loop
      vertex 0.999234 1.37533 -0.5
      vertex 2.35114 3.23607 -0.5
      vertex 2 3.4641 -0.5
    endloop
  endfacet
  facet normal 0 0 1
    outer loop
      vertex 3.23607 -2.35114 -0.5
      vertex 1.37533 -0.999234 -0.5
      vertex 2.97258 -2.67652 -0.5
    endloop
  endfacet
  facet normal 0 0 1
    outer loop
      vertex 2.97258 -2.67652 -0.5
      vertex 1.37533 -0.999234 -0.5
      vertex 2.67652 -2.97258 -0.5
    endloop
  endfacet
  facet normal 0 0 1
    outer loop
      vertex 0.999234 1.37533 -0.5
      vertex 2 3.4641 -0.5
      vertex 1.62695 3.65418 -0.5
    endloop
  endfacet
  facet normal 0 0 1
    outer loop
      vertex 3.91259 0.831646 -0.5
      vertex 1.6168 0.525329 -0.5
      vertex 1.7 0 -0.5
    endloop
  endfacet
  facet normal 0 0 1
    outer loop
      vertex 3.4641 2 -0.5
      vertex 1.37533 0.999234 -0.5
      vertex 1.6168 0.525329 -0.5
    endloop
  endfacet
  facet normal 0 0 1
    outer loop
      vertex 0.525329 1.6168 -0.5
      vertex 1.62695 3.65418 -0.5
      vertex 1.23607 3.80423 -0.5
    endloop
  endfacet
  facet normal 0 0 1
    outer loop
      vertex 2.67652 2.97258 -0.5
      vertex 0.999234 1.37533 -0.5
      vertex 1.37533 0.999234 -0.5
    endloop
  endfacet
  facet normal 0 0 1
    outer loop
      vertex 0.525329 1.6168 -0.5
      vertex 1.23607 3.80423 -0.5
      vertex 0.831646 3.91259 -0.5
    endloop
  endfacet
  facet normal 0 0 1
    outer loop
      vertex 1.62695 3.65418 -0.5
      vertex 0.525329 1.6168 -0.5
      vertex 0.999234 1.37533 -0.5
    endloop
  endfacet
  facet normal 0 0 1
    outer loop
      vertex 0.418114 3.97809 -0.5
      vertex 0.525329 1.6168 -0.5
      vertex 0.831646 3.91259 -0.5
    endloop
  endfacet
  facet normal 0 0 1
    outer loop
      vertex 0 1.7 -0.5
      vertex 0.418114 3.97809 -0.5
      vertex 0 4 -0.5
    endloop
  endfacet
  facet normal 0 0 1
    outer loop
      vertex 0.418114 3.97809 -0.5
      vertex 0 1.7 -0.5
      vertex 0.525329 1.6168 -0.5
    endloop
  endfacet
  facet normal -0 0 1
    outer loop
      vertex -0.418114 3.97809 -0.5
      vertex 0 1.7 -0.5
      vertex 0 4 -0.5
    endloop
  endfacet
  facet normal 0 0 1
    outer loop
      vertex -0.418114 3.97809 -0.5
      vertex -0.525329 1.6168 -0.5
      vertex 0 1.7 -0.5
    endloop
  endfacet
  facet normal -0 0 1
    outer loop
      vertex -0.831646 3.91259 -0.5
      vertex -0.525329 1.6168 -0.5
      vertex -0.418114 3.97809 -0.5
    endloop
  endfacet
  facet normal -0 0 1
    outer loop
      vertex -1.23607 3.80423 -0.5
      vertex -0.525329 1.6168 -0.5
      vertex -0.831646 3.91259 -0.5
    endloop
  endfacet
  facet normal -0 0 1
    outer loop
      vertex -1.62695 3.65418 -0.5
      vertex -0.525329 1.6168 -0.5
      vertex -1.23607 3.80423 -0.5
    endloop
  endfacet
  facet normal 0 0 1
    outer loop
      vertex -0.525329 1.6168 -0.5
      vertex -1.62695 3.65418 -0.5
      vertex -0.999234 1.37533 -0.5
    endloop
  endfacet
  facet normal -0 0 1
    outer loop
      vertex -2 3.4641 -0.5
      vertex -0.999234 1.37533 -0.5
      vertex -1.62695 3.65418 -0.5
    endloop
  endfacet
  facet normal -0 0 1
    outer loop
      vertex -2.35114 3.23607 -0.5
      vertex -0.999234 1.37533 -0.5
      vertex -2 3.4641 -0.5
    endloop
  endfacet
  facet normal -0 0 1
    outer loop
      vertex -2.67652 2.97258 -0.5
      vertex -0.999234 1.37533 -0.5
      vertex -2.35114 3.23607 -0.5
    endloop
  endfacet
  facet normal 0 0 1
    outer loop
      vertex -0.999234 1.37533 -0.5
      vertex -2.67652 2.97258 -0.5
      vertex -1.37533 0.999234 -0.5
    endloop
  endfacet
  facet normal -0 0 1
    outer loop
      vertex 0.999234 -1.37533 -0.5
      vertex 2.67652 -2.97258 -0.5
      vertex 1.37533 -0.999234 -0.5
    endloop
  endfacet
  facet normal 0 0 1
    outer loop
      vertex 2.67652 -2.97258 -0.5
      vertex 0.999234 -1.37533 -0.5
      vertex 2.35114 -3.23607 -0.5
    endloop
  endfacet
  facet normal 0 0 1
    outer loop
      vertex 2.35114 -3.23607 -0.5
      vertex 0.999234 -1.37533 -0.5
      vertex 2 -3.4641 -0.5
    endloop
  endfacet
  facet normal 0 0 1
    outer loop
      vertex 2 -3.4641 -0.5
      vertex 0.999234 -1.37533 -0.5
      vertex 1.62695 -3.65418 -0.5
    endloop
  endfacet
  facet normal -0 0 1
    outer loop
      vertex 0.525329 -1.6168 -0.5
      vertex 1.62695 -3.65418 -0.5
      vertex 0.999234 -1.37533 -0.5
    endloop
  endfacet
  facet normal 0 0 1
    outer loop
      vertex 1.62695 -3.65418 -0.5
      vertex 0.525329 -1.6168 -0.5
      vertex 1.23607 -3.80423 -0.5
    endloop
  endfacet
  facet normal 0 0 1
    outer loop
      vertex 1.23607 -3.80423 -0.5
      vertex 0.525329 -1.6168 -0.5
      vertex 0.831646 -3.91259 -0.5
    endloop
  endfacet
  facet normal 0 0 1
    outer loop
      vertex 0.525329 -1.6168 -0.5
      vertex 0.418114 -3.97809 -0.5
      vertex 0.831646 -3.91259 -0.5
    endloop
  endfacet
  facet normal -0 0 1
    outer loop
      vertex 0 -1.7 -0.5
      vertex 0.418114 -3.97809 -0.5
      vertex 0.525329 -1.6168 -0.5
    endloop
  endfacet
  facet normal 0 0 1
    outer loop
      vertex 0 -1.7 -0.5
      vertex 0 -4 -0.5
      vertex 0.418114 -3.97809 -0.5
    endloop
  endfacet
  facet normal 0 0 1
    outer loop
      vertex 0 -1.7 -0.5
      vertex -0.418114 -3.97809 -0.5
      vertex 0 -4 -0.5
    endloop
  endfacet
  facet normal 0 0 1
    outer loop
      vertex -0.525329 -1.6168 -0.5
      vertex -0.418114 -3.97809 -0.5
      vertex 0 -1.7 -0.5
    endloop
  endfacet
  facet normal 0 0 1
    outer loop
      vertex -0.525329 -1.6168 -0.5
      vertex -0.831646 -3.91259 -0.5
      vertex -0.418114 -3.97809 -0.5
    endloop
  endfacet
  facet normal 0 0 1
    outer loop
      vertex -1.62695 -3.65418 -0.5
      vertex -0.525329 -1.6168 -0.5
      vertex -0.999234 -1.37533 -0.5
    endloop
  endfacet
  facet normal 0 0 1
    outer loop
      vertex -0.525329 -1.6168 -0.5
      vertex -1.23607 -3.80423 -0.5
      vertex -0.831646 -3.91259 -0.5
    endloop
  endfacet
  facet normal 0 0 1
    outer loop
      vertex -2.67652 -2.97258 -0.5
      vertex -0.999234 -1.37533 -0.5
      vertex -1.37533 -0.999234 -0.5
    endloop
  endfacet
  facet normal 0 0 1
    outer loop
      vertex -3.4641 -2 -0.5
      vertex -1.37533 -0.999234 -0.5
      vertex -1.6168 -0.525329 -0.5
    endloop
  endfacet
  facet normal 0 0 1
    outer loop
      vertex -0.525329 -1.6168 -0.5
      vertex -1.62695 -3.65418 -0.5
      vertex -1.23607 -3.80423 -0.5
    endloop
  endfacet
  facet normal 0 0 1
    outer loop
      vertex -3.91259 -0.831646 -0.5
      vertex -1.6168 -0.525329 -0.5
      vertex -1.7 0 -0.5
    endloop
  endfacet
  facet normal -0 0 1
    outer loop
      vertex -2.97258 2.67652 -0.5
      vertex -1.37533 0.999234 -0.5
      vertex -2.67652 2.97258 -0.5
    endloop
  endfacet
  facet normal 0 0 1
    outer loop
      vertex -0.999234 -1.37533 -0.5
      vertex -2 -3.4641 -0.5
      vertex -1.62695 -3.65418 -0.5
    endloop
  endfacet
  facet normal -0 0 1
    outer loop
      vertex -3.23607 2.35114 -0.5
      vertex -1.37533 0.999234 -0.5
      vertex -2.97258 2.67652 -0.5
    endloop
  endfacet
  facet normal 0 0 1
    outer loop
      vertex -0.999234 -1.37533 -0.5
      vertex -2.35114 -3.23607 -0.5
      vertex -2 -3.4641 -0.5
    endloop
  endfacet
  facet normal -0 0 1
    outer loop
      vertex -3.4641 2 -0.5
      vertex -1.37533 0.999234 -0.5
      vertex -3.23607 2.35114 -0.5
    endloop
  endfacet
  facet normal 0 0 1
    outer loop
      vertex -0.999234 -1.37533 -0.5
      vertex -2.67652 -2.97258 -0.5
      vertex -2.35114 -3.23607 -0.5
    endloop
  endfacet
  facet normal 0 0 1
    outer loop
      vertex -1.37533 0.999234 -0.5
      vertex -3.4641 2 -0.5
      vertex -1.6168 0.525329 -0.5
    endloop
  endfacet
  facet normal 0 0 1
    outer loop
      vertex -1.37533 -0.999234 -0.5
      vertex -2.97258 -2.67652 -0.5
      vertex -2.67652 -2.97258 -0.5
    endloop
  endfacet
  facet normal -0 0 1
    outer loop
      vertex -3.65418 1.62695 -0.5
      vertex -1.6168 0.525329 -0.5
      vertex -3.4641 2 -0.5
    endloop
  endfacet
  facet normal 0 0 1
    outer loop
      vertex -1.37533 -0.999234 -0.5
      vertex -3.23607 -2.35114 -0.5
      vertex -2.97258 -2.67652 -0.5
    endloop
  endfacet
  facet normal -0 0 1
    outer loop
      vertex -3.80423 1.23607 -0.5
      vertex -1.6168 0.525329 -0.5
      vertex -3.65418 1.62695 -0.5
    endloop
  endfacet
  facet normal 0 0 1
    outer loop
      vertex -1.37533 -0.999234 -0.5
      vertex -3.4641 -2 -0.5
      vertex -3.23607 -2.35114 -0.5
    endloop
  endfacet
  facet normal -0 0 1
    outer loop
      vertex -3.91259 0.831646 -0.5
      vertex -1.6168 0.525329 -0.5
      vertex -3.80423 1.23607 -0.5
    endloop
  endfacet
  facet normal 0 0 1
    outer loop
      vertex -1.6168 -0.525329 -0.5
      vertex -3.65418 -1.62695 -0.5
      vertex -3.4641 -2 -0.5
    endloop
  endfacet
  facet normal 0 0 1
    outer loop
      vertex -1.6168 0.525329 -0.5
      vertex -3.91259 0.831646 -0.5
      vertex -1.7 0 -0.5
    endloop
  endfacet
  facet normal 0 0 1
    outer loop
      vertex -1.6168 -0.525329 -0.5
      vertex -3.80423 -1.23607 -0.5
      vertex -3.65418 -1.62695 -0.5
    endloop
  endfacet
  facet normal -0 0 1
    outer loop
      vertex -3.97809 0.418114 -0.5
      vertex -1.7 0 -0.5
      vertex -3.91259 0.831646 -0.5
    endloop
  endfacet
  facet normal 0 0 1
    outer loop
      vertex -1.6168 -0.525329 -0.5
      vertex -3.91259 -0.831646 -0.5
      vertex -3.80423 -1.23607 -0.5
    endloop
  endfacet
  facet normal 0 0 1
    outer loop
      vertex -4 0 -0.5
      vertex -1.7 0 -0.5
      vertex -3.97809 0.418114 -0.5
    endloop
  endfacet
  facet normal 0 0 1
    outer loop
      vertex -1.7 0 -0.5
      vertex -3.97809 -0.418114 -0.5
      vertex -3.91259 -0.831646 -0.5
    endloop
  endfacet
  facet normal 0 0 1
    outer loop
      vertex -1.7 0 -0.5
      vertex -4 0 -0.5
      vertex -3.97809 -0.418114 -0.5
    endloop
  endfacet
  facet normal 0.707107 -0.707107 0
    outer loop
      vertex -2.97258 2.67652 0
      vertex -2.67652 2.97258 -0.5
      vertex -2.67652 2.97258 0
    endloop
  endfacet
  facet normal 0.707107 -0.707107 0
    outer loop
      vertex -2.67652 2.97258 -0.5
      vertex -2.97258 2.67652 0
      vertex -2.97258 2.67652 -0.5
    endloop
  endfacet
endsolid OpenSCAD_Model
